<mxfile host="app.diagrams.net" modified="2022-08-04T11:06:19.322Z" agent="5.0 (X11)" etag="0mit8rKg2o7udqeGkrvJ" version="20.2.2" type="github">
  <diagram id="OKJBBSTHWLwM666B0Pqj" name="Page-1">
    <mxGraphModel dx="704" dy="438" grid="1" gridSize="10" guides="1" tooltips="1" connect="1" arrows="1" fold="1" page="1" pageScale="1" pageWidth="827" pageHeight="1169" math="0" shadow="0">
      <root>
        <mxCell id="0" />
        <mxCell id="1" parent="0" />
        <mxCell id="tHKBDyenzgohp8NIYTpj-111" value="\" style="rounded=0;whiteSpace=wrap;html=1;fontSize=25;strokeWidth=1;fillColor=#FFFFFF;" parent="1" vertex="1">
          <mxGeometry x="889.25" y="805" width="120" height="60" as="geometry" />
        </mxCell>
        <mxCell id="zlBBdxe0bt9fsabpmSAy-1" value="" style="rounded=0;whiteSpace=wrap;html=1;labelBackgroundColor=none;" parent="1" vertex="1">
          <mxGeometry x="665" y="55" width="250" height="555" as="geometry" />
        </mxCell>
        <mxCell id="zlBBdxe0bt9fsabpmSAy-2" value="ARDUINO MEGA 2560" style="text;html=1;strokeColor=none;fillColor=none;align=center;verticalAlign=middle;whiteSpace=wrap;rounded=0;fontSize=11;fontStyle=2;labelBackgroundColor=none;" parent="1" vertex="1">
          <mxGeometry x="787.5" y="30" width="135" height="30" as="geometry" />
        </mxCell>
        <mxCell id="zlBBdxe0bt9fsabpmSAy-3" value="SCL1" style="text;html=1;strokeColor=none;fillColor=none;align=right;verticalAlign=middle;whiteSpace=wrap;rounded=0;rotation=0;fontSize=8;labelBackgroundColor=none;" parent="1" vertex="1">
          <mxGeometry x="865" y="85" width="50" height="10" as="geometry" />
        </mxCell>
        <mxCell id="zlBBdxe0bt9fsabpmSAy-4" value="SDA1" style="text;html=1;strokeColor=none;fillColor=none;align=right;verticalAlign=middle;whiteSpace=wrap;rounded=0;rotation=0;fontSize=8;labelBackgroundColor=none;" parent="1" vertex="1">
          <mxGeometry x="865" y="95" width="50" height="10" as="geometry" />
        </mxCell>
        <mxCell id="zlBBdxe0bt9fsabpmSAy-5" value="AREF" style="text;html=1;strokeColor=none;fillColor=none;align=right;verticalAlign=middle;whiteSpace=wrap;rounded=0;rotation=0;fontSize=8;labelBackgroundColor=none;" parent="1" vertex="1">
          <mxGeometry x="865" y="105" width="50" height="10" as="geometry" />
        </mxCell>
        <mxCell id="zlBBdxe0bt9fsabpmSAy-20" value="7" style="text;html=1;strokeColor=none;fillColor=none;align=right;verticalAlign=middle;whiteSpace=wrap;rounded=0;rotation=0;fontSize=8;labelBackgroundColor=none;" parent="1" vertex="1">
          <mxGeometry x="865" y="195" width="50" height="10" as="geometry" />
        </mxCell>
        <mxCell id="zlBBdxe0bt9fsabpmSAy-21" value="6" style="text;html=1;strokeColor=none;fillColor=none;align=right;verticalAlign=middle;whiteSpace=wrap;rounded=0;rotation=0;fontSize=8;labelBackgroundColor=none;" parent="1" vertex="1">
          <mxGeometry x="865" y="205" width="50" height="10" as="geometry" />
        </mxCell>
        <mxCell id="zlBBdxe0bt9fsabpmSAy-22" value="5" style="text;html=1;strokeColor=none;fillColor=none;align=right;verticalAlign=middle;whiteSpace=wrap;rounded=0;rotation=0;fontSize=8;labelBackgroundColor=none;" parent="1" vertex="1">
          <mxGeometry x="865" y="215" width="50" height="10" as="geometry" />
        </mxCell>
        <mxCell id="zlBBdxe0bt9fsabpmSAy-23" value="4" style="text;html=1;strokeColor=none;fillColor=none;align=right;verticalAlign=middle;whiteSpace=wrap;rounded=0;rotation=0;fontSize=8;labelBackgroundColor=none;" parent="1" vertex="1">
          <mxGeometry x="865" y="225" width="50" height="10" as="geometry" />
        </mxCell>
        <mxCell id="zlBBdxe0bt9fsabpmSAy-24" value="3" style="text;html=1;strokeColor=none;fillColor=none;align=right;verticalAlign=middle;whiteSpace=wrap;rounded=0;rotation=0;fontSize=8;labelBackgroundColor=none;" parent="1" vertex="1">
          <mxGeometry x="865" y="235" width="50" height="10" as="geometry" />
        </mxCell>
        <mxCell id="zlBBdxe0bt9fsabpmSAy-25" value="2" style="text;html=1;strokeColor=none;fillColor=none;align=right;verticalAlign=middle;whiteSpace=wrap;rounded=0;rotation=0;fontSize=8;labelBackgroundColor=none;" parent="1" vertex="1">
          <mxGeometry x="865" y="245" width="50" height="10" as="geometry" />
        </mxCell>
        <mxCell id="zlBBdxe0bt9fsabpmSAy-26" value="&amp;nbsp;(TX) 1" style="text;html=1;strokeColor=none;fillColor=none;align=right;verticalAlign=middle;whiteSpace=wrap;rounded=0;rotation=0;fontSize=8;labelBackgroundColor=none;" parent="1" vertex="1">
          <mxGeometry x="865" y="255" width="50" height="10" as="geometry" />
        </mxCell>
        <mxCell id="zlBBdxe0bt9fsabpmSAy-27" value="(RX) 0" style="text;html=1;strokeColor=none;fillColor=none;align=right;verticalAlign=middle;whiteSpace=wrap;rounded=0;rotation=0;fontSize=8;labelBackgroundColor=none;" parent="1" vertex="1">
          <mxGeometry x="865" y="265" width="50" height="10" as="geometry" />
        </mxCell>
        <mxCell id="zlBBdxe0bt9fsabpmSAy-28" value="13" style="text;html=1;strokeColor=none;fillColor=none;align=right;verticalAlign=middle;whiteSpace=wrap;rounded=0;rotation=0;fontSize=8;labelBackgroundColor=none;" parent="1" vertex="1">
          <mxGeometry x="865" y="125" width="50" height="10" as="geometry" />
        </mxCell>
        <mxCell id="zlBBdxe0bt9fsabpmSAy-29" value="12" style="text;html=1;strokeColor=none;fillColor=none;align=right;verticalAlign=middle;whiteSpace=wrap;rounded=0;rotation=0;fontSize=8;labelBackgroundColor=none;" parent="1" vertex="1">
          <mxGeometry x="865" y="135" width="50" height="10" as="geometry" />
        </mxCell>
        <mxCell id="zlBBdxe0bt9fsabpmSAy-30" value="11" style="text;html=1;strokeColor=none;fillColor=none;align=right;verticalAlign=middle;whiteSpace=wrap;rounded=0;rotation=0;fontSize=8;labelBackgroundColor=none;" parent="1" vertex="1">
          <mxGeometry x="865" y="145" width="50" height="10" as="geometry" />
        </mxCell>
        <mxCell id="zlBBdxe0bt9fsabpmSAy-31" value="10" style="text;html=1;strokeColor=none;fillColor=none;align=right;verticalAlign=middle;whiteSpace=wrap;rounded=0;rotation=0;fontSize=8;labelBackgroundColor=none;" parent="1" vertex="1">
          <mxGeometry x="865" y="155" width="50" height="10" as="geometry" />
        </mxCell>
        <mxCell id="zlBBdxe0bt9fsabpmSAy-32" value="9" style="text;html=1;strokeColor=none;fillColor=none;align=right;verticalAlign=middle;whiteSpace=wrap;rounded=0;rotation=0;fontSize=8;labelBackgroundColor=none;" parent="1" vertex="1">
          <mxGeometry x="865" y="165" width="50" height="10" as="geometry" />
        </mxCell>
        <mxCell id="zlBBdxe0bt9fsabpmSAy-33" value="8" style="text;html=1;strokeColor=none;fillColor=none;align=right;verticalAlign=middle;whiteSpace=wrap;rounded=0;rotation=0;fontSize=8;labelBackgroundColor=none;" parent="1" vertex="1">
          <mxGeometry x="865" y="175" width="50" height="10" as="geometry" />
        </mxCell>
        <mxCell id="zlBBdxe0bt9fsabpmSAy-34" value="&amp;nbsp;(TX3) 14" style="text;html=1;strokeColor=none;fillColor=none;align=right;verticalAlign=middle;whiteSpace=wrap;rounded=0;rotation=0;fontSize=8;labelBackgroundColor=none;" parent="1" vertex="1">
          <mxGeometry x="865" y="285" width="50" height="10" as="geometry" />
        </mxCell>
        <mxCell id="zlBBdxe0bt9fsabpmSAy-35" value="(RX3) 15" style="text;html=1;strokeColor=none;fillColor=none;align=right;verticalAlign=middle;whiteSpace=wrap;rounded=0;rotation=0;fontSize=8;labelBackgroundColor=none;" parent="1" vertex="1">
          <mxGeometry x="865" y="295" width="50" height="10" as="geometry" />
        </mxCell>
        <mxCell id="zlBBdxe0bt9fsabpmSAy-36" value="&amp;nbsp;(TX2) 16" style="text;html=1;strokeColor=none;fillColor=none;align=right;verticalAlign=middle;whiteSpace=wrap;rounded=0;rotation=0;fontSize=8;labelBackgroundColor=none;" parent="1" vertex="1">
          <mxGeometry x="865" y="305" width="50" height="10" as="geometry" />
        </mxCell>
        <mxCell id="zlBBdxe0bt9fsabpmSAy-37" value="(RX2) 17" style="text;html=1;strokeColor=none;fillColor=none;align=right;verticalAlign=middle;whiteSpace=wrap;rounded=0;rotation=0;fontSize=8;labelBackgroundColor=none;" parent="1" vertex="1">
          <mxGeometry x="865" y="315" width="50" height="10" as="geometry" />
        </mxCell>
        <mxCell id="zlBBdxe0bt9fsabpmSAy-38" value="(TX1) 18" style="text;html=1;strokeColor=none;fillColor=none;align=right;verticalAlign=middle;whiteSpace=wrap;rounded=0;rotation=0;fontSize=8;labelBackgroundColor=none;" parent="1" vertex="1">
          <mxGeometry x="865" y="325" width="50" height="10" as="geometry" />
        </mxCell>
        <mxCell id="zlBBdxe0bt9fsabpmSAy-39" value="(RX1) 19" style="text;html=1;strokeColor=none;fillColor=none;align=right;verticalAlign=middle;whiteSpace=wrap;rounded=0;rotation=0;fontSize=8;labelBackgroundColor=none;" parent="1" vertex="1">
          <mxGeometry x="865" y="335" width="50" height="10" as="geometry" />
        </mxCell>
        <mxCell id="zlBBdxe0bt9fsabpmSAy-40" value="(SDA) 20" style="text;html=1;strokeColor=none;fillColor=none;align=right;verticalAlign=middle;whiteSpace=wrap;rounded=0;rotation=0;fontSize=8;labelBackgroundColor=none;" parent="1" vertex="1">
          <mxGeometry x="865" y="345" width="50" height="10" as="geometry" />
        </mxCell>
        <mxCell id="zlBBdxe0bt9fsabpmSAy-41" value="(SCL) 21" style="text;html=1;strokeColor=none;fillColor=none;align=right;verticalAlign=middle;whiteSpace=wrap;rounded=0;rotation=0;fontSize=8;labelBackgroundColor=none;" parent="1" vertex="1">
          <mxGeometry x="865" y="355" width="50" height="10" as="geometry" />
        </mxCell>
        <mxCell id="zlBBdxe0bt9fsabpmSAy-48" value="" style="endArrow=none;html=1;rounded=0;fontSize=8;entryX=1;entryY=0.5;entryDx=0;entryDy=0;labelBackgroundColor=none;" parent="1" target="zlBBdxe0bt9fsabpmSAy-3" edge="1">
          <mxGeometry width="50" height="50" relative="1" as="geometry">
            <mxPoint x="925" y="90" as="sourcePoint" />
            <mxPoint x="885" y="135" as="targetPoint" />
          </mxGeometry>
        </mxCell>
        <mxCell id="zlBBdxe0bt9fsabpmSAy-49" value="" style="endArrow=none;html=1;rounded=0;fontSize=8;entryX=1;entryY=0.5;entryDx=0;entryDy=0;labelBackgroundColor=none;" parent="1" edge="1">
          <mxGeometry width="50" height="50" relative="1" as="geometry">
            <mxPoint x="925" y="99.90000000000003" as="sourcePoint" />
            <mxPoint x="915" y="99.90000000000003" as="targetPoint" />
          </mxGeometry>
        </mxCell>
        <mxCell id="zlBBdxe0bt9fsabpmSAy-50" value="" style="endArrow=none;html=1;rounded=0;fontSize=8;entryX=1;entryY=0.5;entryDx=0;entryDy=0;labelBackgroundColor=none;" parent="1" target="zlBBdxe0bt9fsabpmSAy-5" edge="1">
          <mxGeometry width="50" height="50" relative="1" as="geometry">
            <mxPoint x="925" y="110" as="sourcePoint" />
            <mxPoint x="935" y="110" as="targetPoint" />
          </mxGeometry>
        </mxCell>
        <mxCell id="zlBBdxe0bt9fsabpmSAy-61" value="" style="endArrow=none;html=1;rounded=0;fontSize=8;entryX=1;entryY=0.5;entryDx=0;entryDy=0;labelBackgroundColor=none;" parent="1" edge="1">
          <mxGeometry width="50" height="50" relative="1" as="geometry">
            <mxPoint x="925" y="239.9000000000001" as="sourcePoint" />
            <mxPoint x="915" y="239.9000000000001" as="targetPoint" />
          </mxGeometry>
        </mxCell>
        <mxCell id="zlBBdxe0bt9fsabpmSAy-62" value="" style="endArrow=none;html=1;rounded=0;fontSize=8;entryX=1;entryY=0.5;entryDx=0;entryDy=0;labelBackgroundColor=none;" parent="1" edge="1">
          <mxGeometry width="50" height="50" relative="1" as="geometry">
            <mxPoint x="925" y="250" as="sourcePoint" />
            <mxPoint x="915" y="250" as="targetPoint" />
          </mxGeometry>
        </mxCell>
        <mxCell id="zlBBdxe0bt9fsabpmSAy-63" value="" style="endArrow=none;html=1;rounded=0;fontSize=8;entryX=1;entryY=0.5;entryDx=0;entryDy=0;labelBackgroundColor=none;" parent="1" edge="1">
          <mxGeometry width="50" height="50" relative="1" as="geometry">
            <mxPoint x="925" y="260" as="sourcePoint" />
            <mxPoint x="915" y="260" as="targetPoint" />
          </mxGeometry>
        </mxCell>
        <mxCell id="zlBBdxe0bt9fsabpmSAy-64" value="" style="endArrow=none;html=1;rounded=0;fontSize=8;entryX=1;entryY=0.5;entryDx=0;entryDy=0;labelBackgroundColor=none;" parent="1" edge="1">
          <mxGeometry width="50" height="50" relative="1" as="geometry">
            <mxPoint x="925" y="269.9000000000001" as="sourcePoint" />
            <mxPoint x="915" y="269.9000000000001" as="targetPoint" />
          </mxGeometry>
        </mxCell>
        <mxCell id="zlBBdxe0bt9fsabpmSAy-69" value="" style="endArrow=none;html=1;rounded=0;fontSize=8;entryX=1;entryY=0.5;entryDx=0;entryDy=0;labelBackgroundColor=none;" parent="1" edge="1">
          <mxGeometry width="50" height="50" relative="1" as="geometry">
            <mxPoint x="925" y="290" as="sourcePoint" />
            <mxPoint x="915" y="290" as="targetPoint" />
          </mxGeometry>
        </mxCell>
        <mxCell id="zlBBdxe0bt9fsabpmSAy-70" value="" style="endArrow=none;html=1;rounded=0;fontSize=8;entryX=1;entryY=0.5;entryDx=0;entryDy=0;labelBackgroundColor=none;" parent="1" edge="1">
          <mxGeometry width="50" height="50" relative="1" as="geometry">
            <mxPoint x="925" y="299.9000000000001" as="sourcePoint" />
            <mxPoint x="915" y="299.9000000000001" as="targetPoint" />
          </mxGeometry>
        </mxCell>
        <mxCell id="zlBBdxe0bt9fsabpmSAy-71" value="" style="endArrow=none;html=1;rounded=0;fontSize=8;entryX=1;entryY=0.5;entryDx=0;entryDy=0;labelBackgroundColor=none;" parent="1" edge="1">
          <mxGeometry width="50" height="50" relative="1" as="geometry">
            <mxPoint x="925" y="310" as="sourcePoint" />
            <mxPoint x="915" y="310" as="targetPoint" />
          </mxGeometry>
        </mxCell>
        <mxCell id="zlBBdxe0bt9fsabpmSAy-72" value="" style="endArrow=none;html=1;rounded=0;fontSize=8;entryX=1;entryY=0.5;entryDx=0;entryDy=0;labelBackgroundColor=none;" parent="1" edge="1">
          <mxGeometry width="50" height="50" relative="1" as="geometry">
            <mxPoint x="925" y="320" as="sourcePoint" />
            <mxPoint x="915" y="320" as="targetPoint" />
          </mxGeometry>
        </mxCell>
        <mxCell id="zlBBdxe0bt9fsabpmSAy-73" value="" style="endArrow=none;html=1;rounded=0;fontSize=8;entryX=1;entryY=0.5;entryDx=0;entryDy=0;labelBackgroundColor=none;" parent="1" edge="1">
          <mxGeometry width="50" height="50" relative="1" as="geometry">
            <mxPoint x="925" y="329.9000000000001" as="sourcePoint" />
            <mxPoint x="915" y="329.9000000000001" as="targetPoint" />
          </mxGeometry>
        </mxCell>
        <mxCell id="zlBBdxe0bt9fsabpmSAy-74" value="" style="endArrow=none;html=1;rounded=0;fontSize=8;entryX=1;entryY=0.5;entryDx=0;entryDy=0;labelBackgroundColor=none;" parent="1" edge="1">
          <mxGeometry width="50" height="50" relative="1" as="geometry">
            <mxPoint x="925" y="340" as="sourcePoint" />
            <mxPoint x="915" y="340" as="targetPoint" />
          </mxGeometry>
        </mxCell>
        <mxCell id="zlBBdxe0bt9fsabpmSAy-75" value="" style="endArrow=none;html=1;rounded=0;fontSize=8;entryX=1;entryY=0.5;entryDx=0;entryDy=0;labelBackgroundColor=none;" parent="1" edge="1">
          <mxGeometry width="50" height="50" relative="1" as="geometry">
            <mxPoint x="925" y="350" as="sourcePoint" />
            <mxPoint x="915" y="350" as="targetPoint" />
          </mxGeometry>
        </mxCell>
        <mxCell id="zlBBdxe0bt9fsabpmSAy-76" value="" style="endArrow=none;html=1;rounded=0;fontSize=8;entryX=1;entryY=0.5;entryDx=0;entryDy=0;labelBackgroundColor=none;" parent="1" edge="1">
          <mxGeometry width="50" height="50" relative="1" as="geometry">
            <mxPoint x="925" y="359.9000000000001" as="sourcePoint" />
            <mxPoint x="915" y="359.9000000000001" as="targetPoint" />
          </mxGeometry>
        </mxCell>
        <mxCell id="zlBBdxe0bt9fsabpmSAy-77" value="A0" style="text;html=1;strokeColor=none;fillColor=none;align=left;verticalAlign=middle;whiteSpace=wrap;rounded=0;rotation=0;fontSize=8;labelBackgroundColor=none;" parent="1" vertex="1">
          <mxGeometry x="665" y="210" width="50" height="10" as="geometry" />
        </mxCell>
        <mxCell id="zlBBdxe0bt9fsabpmSAy-78" value="A1" style="text;html=1;strokeColor=none;fillColor=none;align=left;verticalAlign=middle;whiteSpace=wrap;rounded=0;rotation=0;fontSize=8;labelBackgroundColor=none;" parent="1" vertex="1">
          <mxGeometry x="665" y="220" width="50" height="10" as="geometry" />
        </mxCell>
        <mxCell id="zlBBdxe0bt9fsabpmSAy-79" value="A2" style="text;html=1;strokeColor=none;fillColor=none;align=left;verticalAlign=middle;whiteSpace=wrap;rounded=0;rotation=0;fontSize=8;labelBackgroundColor=none;" parent="1" vertex="1">
          <mxGeometry x="665" y="230" width="50" height="10" as="geometry" />
        </mxCell>
        <mxCell id="zlBBdxe0bt9fsabpmSAy-80" value="A3" style="text;html=1;strokeColor=none;fillColor=none;align=left;verticalAlign=middle;whiteSpace=wrap;rounded=0;rotation=0;fontSize=8;labelBackgroundColor=none;" parent="1" vertex="1">
          <mxGeometry x="665" y="240" width="50" height="10" as="geometry" />
        </mxCell>
        <mxCell id="zlBBdxe0bt9fsabpmSAy-93" value="A4" style="text;html=1;strokeColor=none;fillColor=none;align=left;verticalAlign=middle;whiteSpace=wrap;rounded=0;rotation=0;fontSize=8;labelBackgroundColor=none;" parent="1" vertex="1">
          <mxGeometry x="665" y="250" width="50" height="10" as="geometry" />
        </mxCell>
        <mxCell id="zlBBdxe0bt9fsabpmSAy-94" value="A5" style="text;html=1;strokeColor=none;fillColor=none;align=left;verticalAlign=middle;whiteSpace=wrap;rounded=0;rotation=0;fontSize=8;labelBackgroundColor=none;" parent="1" vertex="1">
          <mxGeometry x="665" y="260" width="50" height="10" as="geometry" />
        </mxCell>
        <mxCell id="zlBBdxe0bt9fsabpmSAy-95" value="A6" style="text;html=1;strokeColor=none;fillColor=none;align=left;verticalAlign=middle;whiteSpace=wrap;rounded=0;rotation=0;fontSize=8;labelBackgroundColor=none;" parent="1" vertex="1">
          <mxGeometry x="665" y="270" width="50" height="10" as="geometry" />
        </mxCell>
        <mxCell id="zlBBdxe0bt9fsabpmSAy-96" value="A7" style="text;html=1;strokeColor=none;fillColor=none;align=left;verticalAlign=middle;whiteSpace=wrap;rounded=0;rotation=0;fontSize=8;labelBackgroundColor=none;" parent="1" vertex="1">
          <mxGeometry x="665" y="280" width="50" height="10" as="geometry" />
        </mxCell>
        <mxCell id="zlBBdxe0bt9fsabpmSAy-97" value="" style="endArrow=none;html=1;rounded=0;fontSize=8;entryX=1;entryY=0.5;entryDx=0;entryDy=0;align=left;labelBackgroundColor=none;" parent="1" edge="1">
          <mxGeometry width="50" height="50" relative="1" as="geometry">
            <mxPoint x="665" y="215" as="sourcePoint" />
            <mxPoint x="655" y="215" as="targetPoint" />
          </mxGeometry>
        </mxCell>
        <mxCell id="zlBBdxe0bt9fsabpmSAy-98" value="" style="endArrow=none;html=1;rounded=0;fontSize=8;entryX=1;entryY=0.5;entryDx=0;entryDy=0;align=left;labelBackgroundColor=none;" parent="1" edge="1">
          <mxGeometry width="50" height="50" relative="1" as="geometry">
            <mxPoint x="665" y="224.89999999999998" as="sourcePoint" />
            <mxPoint x="655" y="224.89999999999998" as="targetPoint" />
          </mxGeometry>
        </mxCell>
        <mxCell id="zlBBdxe0bt9fsabpmSAy-99" value="" style="endArrow=none;html=1;rounded=0;fontSize=8;entryX=1;entryY=0.5;entryDx=0;entryDy=0;align=left;labelBackgroundColor=none;" parent="1" edge="1">
          <mxGeometry width="50" height="50" relative="1" as="geometry">
            <mxPoint x="665" y="235" as="sourcePoint" />
            <mxPoint x="655" y="235" as="targetPoint" />
          </mxGeometry>
        </mxCell>
        <mxCell id="zlBBdxe0bt9fsabpmSAy-100" value="" style="endArrow=none;html=1;rounded=0;fontSize=8;entryX=1;entryY=0.5;entryDx=0;entryDy=0;align=left;labelBackgroundColor=none;" parent="1" edge="1">
          <mxGeometry width="50" height="50" relative="1" as="geometry">
            <mxPoint x="665" y="245" as="sourcePoint" />
            <mxPoint x="655" y="245" as="targetPoint" />
          </mxGeometry>
        </mxCell>
        <mxCell id="zlBBdxe0bt9fsabpmSAy-101" value="" style="endArrow=none;html=1;rounded=0;fontSize=8;entryX=1;entryY=0.5;entryDx=0;entryDy=0;align=left;labelBackgroundColor=none;" parent="1" edge="1">
          <mxGeometry width="50" height="50" relative="1" as="geometry">
            <mxPoint x="665" y="254.9000000000001" as="sourcePoint" />
            <mxPoint x="655" y="254.9000000000001" as="targetPoint" />
          </mxGeometry>
        </mxCell>
        <mxCell id="zlBBdxe0bt9fsabpmSAy-102" value="" style="endArrow=none;html=1;rounded=0;fontSize=8;entryX=1;entryY=0.5;entryDx=0;entryDy=0;align=left;labelBackgroundColor=none;" parent="1" edge="1">
          <mxGeometry width="50" height="50" relative="1" as="geometry">
            <mxPoint x="665" y="265" as="sourcePoint" />
            <mxPoint x="655" y="265" as="targetPoint" />
          </mxGeometry>
        </mxCell>
        <mxCell id="zlBBdxe0bt9fsabpmSAy-103" value="" style="endArrow=none;html=1;rounded=0;fontSize=8;entryX=1;entryY=0.5;entryDx=0;entryDy=0;align=left;labelBackgroundColor=none;" parent="1" edge="1">
          <mxGeometry width="50" height="50" relative="1" as="geometry">
            <mxPoint x="665" y="275" as="sourcePoint" />
            <mxPoint x="655" y="275" as="targetPoint" />
          </mxGeometry>
        </mxCell>
        <mxCell id="zlBBdxe0bt9fsabpmSAy-104" value="" style="endArrow=none;html=1;rounded=0;fontSize=8;entryX=1;entryY=0.5;entryDx=0;entryDy=0;align=left;labelBackgroundColor=none;" parent="1" edge="1">
          <mxGeometry width="50" height="50" relative="1" as="geometry">
            <mxPoint x="665" y="284.9000000000001" as="sourcePoint" />
            <mxPoint x="655" y="284.9000000000001" as="targetPoint" />
          </mxGeometry>
        </mxCell>
        <mxCell id="zlBBdxe0bt9fsabpmSAy-105" value="A8" style="text;html=1;strokeColor=none;fillColor=none;align=left;verticalAlign=middle;whiteSpace=wrap;rounded=0;rotation=0;fontSize=8;labelBackgroundColor=none;" parent="1" vertex="1">
          <mxGeometry x="665" y="300" width="50" height="10" as="geometry" />
        </mxCell>
        <mxCell id="zlBBdxe0bt9fsabpmSAy-106" value="A9" style="text;html=1;strokeColor=none;fillColor=none;align=left;verticalAlign=middle;whiteSpace=wrap;rounded=0;rotation=0;fontSize=8;labelBackgroundColor=none;" parent="1" vertex="1">
          <mxGeometry x="665" y="310" width="50" height="10" as="geometry" />
        </mxCell>
        <mxCell id="zlBBdxe0bt9fsabpmSAy-107" value="A11" style="text;html=1;strokeColor=none;fillColor=none;align=left;verticalAlign=middle;whiteSpace=wrap;rounded=0;rotation=0;fontSize=8;labelBackgroundColor=none;" parent="1" vertex="1">
          <mxGeometry x="665" y="320" width="50" height="10" as="geometry" />
        </mxCell>
        <mxCell id="zlBBdxe0bt9fsabpmSAy-108" value="A10" style="text;html=1;strokeColor=none;fillColor=none;align=left;verticalAlign=middle;whiteSpace=wrap;rounded=0;rotation=0;fontSize=8;labelBackgroundColor=none;" parent="1" vertex="1">
          <mxGeometry x="665" y="330" width="50" height="10" as="geometry" />
        </mxCell>
        <mxCell id="zlBBdxe0bt9fsabpmSAy-109" value="A12" style="text;html=1;strokeColor=none;fillColor=none;align=left;verticalAlign=middle;whiteSpace=wrap;rounded=0;rotation=0;fontSize=8;labelBackgroundColor=none;" parent="1" vertex="1">
          <mxGeometry x="665" y="340" width="50" height="10" as="geometry" />
        </mxCell>
        <mxCell id="zlBBdxe0bt9fsabpmSAy-110" value="A13" style="text;html=1;strokeColor=none;fillColor=none;align=left;verticalAlign=middle;whiteSpace=wrap;rounded=0;rotation=0;fontSize=8;labelBackgroundColor=none;" parent="1" vertex="1">
          <mxGeometry x="665" y="350" width="50" height="10" as="geometry" />
        </mxCell>
        <mxCell id="zlBBdxe0bt9fsabpmSAy-111" value="A14" style="text;html=1;strokeColor=none;fillColor=none;align=left;verticalAlign=middle;whiteSpace=wrap;rounded=0;rotation=0;fontSize=8;labelBackgroundColor=none;" parent="1" vertex="1">
          <mxGeometry x="665" y="360" width="50" height="10" as="geometry" />
        </mxCell>
        <mxCell id="zlBBdxe0bt9fsabpmSAy-112" value="A15" style="text;html=1;strokeColor=none;fillColor=none;align=left;verticalAlign=middle;whiteSpace=wrap;rounded=0;rotation=0;fontSize=8;labelBackgroundColor=none;" parent="1" vertex="1">
          <mxGeometry x="665" y="370" width="50" height="10" as="geometry" />
        </mxCell>
        <mxCell id="zlBBdxe0bt9fsabpmSAy-113" value="" style="endArrow=none;html=1;rounded=0;fontSize=8;entryX=1;entryY=0.5;entryDx=0;entryDy=0;align=left;labelBackgroundColor=none;" parent="1" edge="1">
          <mxGeometry width="50" height="50" relative="1" as="geometry">
            <mxPoint x="665" y="305" as="sourcePoint" />
            <mxPoint x="655" y="305" as="targetPoint" />
          </mxGeometry>
        </mxCell>
        <mxCell id="zlBBdxe0bt9fsabpmSAy-114" value="" style="endArrow=none;html=1;rounded=0;fontSize=8;entryX=1;entryY=0.5;entryDx=0;entryDy=0;align=left;labelBackgroundColor=none;" parent="1" edge="1">
          <mxGeometry width="50" height="50" relative="1" as="geometry">
            <mxPoint x="665" y="315.89999999999986" as="sourcePoint" />
            <mxPoint x="655" y="315.89999999999986" as="targetPoint" />
          </mxGeometry>
        </mxCell>
        <mxCell id="zlBBdxe0bt9fsabpmSAy-115" value="" style="endArrow=none;html=1;rounded=0;fontSize=8;entryX=1;entryY=0.5;entryDx=0;entryDy=0;align=left;labelBackgroundColor=none;" parent="1" edge="1">
          <mxGeometry width="50" height="50" relative="1" as="geometry">
            <mxPoint x="665" y="326" as="sourcePoint" />
            <mxPoint x="655" y="326" as="targetPoint" />
          </mxGeometry>
        </mxCell>
        <mxCell id="zlBBdxe0bt9fsabpmSAy-116" value="" style="endArrow=none;html=1;rounded=0;fontSize=8;entryX=1;entryY=0.5;entryDx=0;entryDy=0;align=left;labelBackgroundColor=none;" parent="1" edge="1">
          <mxGeometry width="50" height="50" relative="1" as="geometry">
            <mxPoint x="665" y="336" as="sourcePoint" />
            <mxPoint x="655" y="336" as="targetPoint" />
          </mxGeometry>
        </mxCell>
        <mxCell id="zlBBdxe0bt9fsabpmSAy-117" value="" style="endArrow=none;html=1;rounded=0;fontSize=8;entryX=1;entryY=0.5;entryDx=0;entryDy=0;align=left;labelBackgroundColor=none;" parent="1" edge="1">
          <mxGeometry width="50" height="50" relative="1" as="geometry">
            <mxPoint x="665" y="344.9000000000001" as="sourcePoint" />
            <mxPoint x="655" y="344.9000000000001" as="targetPoint" />
          </mxGeometry>
        </mxCell>
        <mxCell id="zlBBdxe0bt9fsabpmSAy-118" value="" style="endArrow=none;html=1;rounded=0;fontSize=8;entryX=1;entryY=0.5;entryDx=0;entryDy=0;align=left;labelBackgroundColor=none;" parent="1" edge="1">
          <mxGeometry width="50" height="50" relative="1" as="geometry">
            <mxPoint x="665" y="355" as="sourcePoint" />
            <mxPoint x="655" y="355" as="targetPoint" />
          </mxGeometry>
        </mxCell>
        <mxCell id="zlBBdxe0bt9fsabpmSAy-119" value="" style="endArrow=none;html=1;rounded=0;fontSize=8;entryX=1;entryY=0.5;entryDx=0;entryDy=0;align=left;labelBackgroundColor=none;" parent="1" edge="1">
          <mxGeometry width="50" height="50" relative="1" as="geometry">
            <mxPoint x="665" y="365" as="sourcePoint" />
            <mxPoint x="655" y="365" as="targetPoint" />
          </mxGeometry>
        </mxCell>
        <mxCell id="zlBBdxe0bt9fsabpmSAy-120" value="" style="endArrow=none;html=1;rounded=0;fontSize=8;entryX=1;entryY=0.5;entryDx=0;entryDy=0;align=left;labelBackgroundColor=none;" parent="1" edge="1">
          <mxGeometry width="50" height="50" relative="1" as="geometry">
            <mxPoint x="665" y="374.9000000000001" as="sourcePoint" />
            <mxPoint x="655" y="374.9000000000001" as="targetPoint" />
          </mxGeometry>
        </mxCell>
        <mxCell id="zlBBdxe0bt9fsabpmSAy-123" value="USB+V" style="text;html=1;strokeColor=none;fillColor=none;align=left;verticalAlign=middle;whiteSpace=wrap;rounded=0;rotation=0;fontSize=8;labelBackgroundColor=none;" parent="1" vertex="1">
          <mxGeometry x="665" y="60" width="50" height="10" as="geometry" />
        </mxCell>
        <mxCell id="zlBBdxe0bt9fsabpmSAy-124" value="USBD+" style="text;html=1;strokeColor=none;fillColor=none;align=left;verticalAlign=middle;whiteSpace=wrap;rounded=0;rotation=0;fontSize=8;labelBackgroundColor=none;" parent="1" vertex="1">
          <mxGeometry x="665" y="70" width="50" height="10" as="geometry" />
        </mxCell>
        <mxCell id="zlBBdxe0bt9fsabpmSAy-125" value="USBD-" style="text;html=1;strokeColor=none;fillColor=none;align=left;verticalAlign=middle;whiteSpace=wrap;rounded=0;rotation=0;fontSize=8;labelBackgroundColor=none;" parent="1" vertex="1">
          <mxGeometry x="665" y="79" width="50" height="10" as="geometry" />
        </mxCell>
        <mxCell id="zlBBdxe0bt9fsabpmSAy-126" value="USBGND" style="text;html=1;strokeColor=none;fillColor=none;align=left;verticalAlign=middle;whiteSpace=wrap;rounded=0;rotation=0;fontSize=8;labelBackgroundColor=none;" parent="1" vertex="1">
          <mxGeometry x="665" y="89" width="50" height="10" as="geometry" />
        </mxCell>
        <mxCell id="zlBBdxe0bt9fsabpmSAy-127" value="" style="endArrow=none;html=1;rounded=0;fontSize=8;entryX=0;entryY=0.5;entryDx=0;entryDy=0;exitX=1;exitY=0.5;exitDx=0;exitDy=0;" parent="1" source="tHKBDyenzgohp8NIYTpj-5" target="zlBBdxe0bt9fsabpmSAy-123" edge="1">
          <mxGeometry width="50" height="50" relative="1" as="geometry">
            <mxPoint x="805" y="44" as="sourcePoint" />
            <mxPoint x="889" y="55" as="targetPoint" />
            <Array as="points">
              <mxPoint x="616" y="65" />
            </Array>
          </mxGeometry>
        </mxCell>
        <mxCell id="zlBBdxe0bt9fsabpmSAy-128" value="" style="endArrow=none;html=1;rounded=0;fontSize=8;entryX=0;entryY=0.5;entryDx=0;entryDy=0;exitX=1;exitY=0.5;exitDx=0;exitDy=0;" parent="1" source="tHKBDyenzgohp8NIYTpj-6" target="zlBBdxe0bt9fsabpmSAy-124" edge="1">
          <mxGeometry width="50" height="50" relative="1" as="geometry">
            <mxPoint x="382" y="39" as="sourcePoint" />
            <mxPoint x="382" y="49" as="targetPoint" />
            <Array as="points">
              <mxPoint x="616" y="75" />
            </Array>
          </mxGeometry>
        </mxCell>
        <mxCell id="zlBBdxe0bt9fsabpmSAy-129" value="" style="endArrow=none;html=1;rounded=0;fontSize=8;entryX=0;entryY=0.5;entryDx=0;entryDy=0;exitX=1;exitY=0.5;exitDx=0;exitDy=0;" parent="1" source="tHKBDyenzgohp8NIYTpj-7" target="zlBBdxe0bt9fsabpmSAy-125" edge="1">
          <mxGeometry width="50" height="50" relative="1" as="geometry">
            <mxPoint x="372" y="39" as="sourcePoint" />
            <mxPoint x="372" y="49" as="targetPoint" />
            <Array as="points">
              <mxPoint x="606" y="84" />
            </Array>
          </mxGeometry>
        </mxCell>
        <mxCell id="zlBBdxe0bt9fsabpmSAy-130" value="" style="endArrow=none;html=1;rounded=0;fontSize=8;entryX=0;entryY=0.5;entryDx=0;entryDy=0;exitX=1;exitY=0.5;exitDx=0;exitDy=0;" parent="1" source="tHKBDyenzgohp8NIYTpj-8" target="zlBBdxe0bt9fsabpmSAy-126" edge="1">
          <mxGeometry width="50" height="50" relative="1" as="geometry">
            <mxPoint x="506" y="94" as="sourcePoint" />
            <mxPoint x="362" y="49" as="targetPoint" />
            <Array as="points">
              <mxPoint x="606" y="94" />
            </Array>
          </mxGeometry>
        </mxCell>
        <mxCell id="zlBBdxe0bt9fsabpmSAy-131" value="PWR+V" style="text;html=1;strokeColor=none;fillColor=none;align=left;verticalAlign=middle;whiteSpace=wrap;rounded=0;rotation=0;fontSize=8;labelBackgroundColor=none;" parent="1" vertex="1">
          <mxGeometry x="665" y="100.5" width="50" height="10" as="geometry" />
        </mxCell>
        <mxCell id="zlBBdxe0bt9fsabpmSAy-132" value="PWR-V" style="text;html=1;strokeColor=none;fillColor=none;align=left;verticalAlign=middle;whiteSpace=wrap;rounded=0;rotation=0;fontSize=8;labelBackgroundColor=none;" parent="1" vertex="1">
          <mxGeometry x="665" y="109.5" width="50" height="10" as="geometry" />
        </mxCell>
        <mxCell id="zlBBdxe0bt9fsabpmSAy-149" value="+5V" style="text;html=1;strokeColor=none;fillColor=none;align=right;verticalAlign=middle;whiteSpace=wrap;rounded=0;rotation=0;fontSize=8;labelBackgroundColor=none;" parent="1" vertex="1">
          <mxGeometry x="865" y="587" width="50" height="10" as="geometry" />
        </mxCell>
        <mxCell id="zlBBdxe0bt9fsabpmSAy-150" value="23" style="text;html=1;strokeColor=none;fillColor=none;align=right;verticalAlign=middle;whiteSpace=wrap;rounded=0;rotation=0;fontSize=8;labelBackgroundColor=none;" parent="1" vertex="1">
          <mxGeometry x="865" y="373" width="50" height="10" as="geometry" />
        </mxCell>
        <mxCell id="zlBBdxe0bt9fsabpmSAy-151" value="25" style="text;html=1;strokeColor=none;fillColor=none;align=right;verticalAlign=middle;whiteSpace=wrap;rounded=0;rotation=0;fontSize=8;labelBackgroundColor=none;" parent="1" vertex="1">
          <mxGeometry x="863" y="383" width="52" height="10" as="geometry" />
        </mxCell>
        <mxCell id="zlBBdxe0bt9fsabpmSAy-152" value="27" style="text;html=1;strokeColor=none;fillColor=none;align=right;verticalAlign=middle;whiteSpace=wrap;rounded=0;rotation=0;fontSize=8;labelBackgroundColor=none;" parent="1" vertex="1">
          <mxGeometry x="865" y="393" width="50" height="10" as="geometry" />
        </mxCell>
        <mxCell id="zlBBdxe0bt9fsabpmSAy-157" value="29" style="text;html=1;strokeColor=none;fillColor=none;align=right;verticalAlign=middle;whiteSpace=wrap;rounded=0;rotation=0;fontSize=8;labelBackgroundColor=none;" parent="1" vertex="1">
          <mxGeometry x="865" y="404" width="50" height="10" as="geometry" />
        </mxCell>
        <mxCell id="zlBBdxe0bt9fsabpmSAy-158" value="31" style="text;html=1;strokeColor=none;fillColor=none;align=right;verticalAlign=middle;whiteSpace=wrap;rounded=0;rotation=0;fontSize=8;labelBackgroundColor=none;" parent="1" vertex="1">
          <mxGeometry x="865" y="414" width="50" height="10" as="geometry" />
        </mxCell>
        <mxCell id="zlBBdxe0bt9fsabpmSAy-159" value="33" style="text;html=1;strokeColor=none;fillColor=none;align=right;verticalAlign=middle;whiteSpace=wrap;rounded=0;rotation=0;fontSize=8;labelBackgroundColor=none;" parent="1" vertex="1">
          <mxGeometry x="865" y="424" width="50" height="10" as="geometry" />
        </mxCell>
        <mxCell id="zlBBdxe0bt9fsabpmSAy-160" value="35" style="text;html=1;strokeColor=none;fillColor=none;align=right;verticalAlign=middle;whiteSpace=wrap;rounded=0;rotation=0;fontSize=8;labelBackgroundColor=none;" parent="1" vertex="1">
          <mxGeometry x="865" y="434" width="50" height="10" as="geometry" />
        </mxCell>
        <mxCell id="zlBBdxe0bt9fsabpmSAy-165" value="37" style="text;html=1;strokeColor=none;fillColor=none;align=right;verticalAlign=middle;whiteSpace=wrap;rounded=0;rotation=0;fontSize=8;labelBackgroundColor=none;" parent="1" vertex="1">
          <mxGeometry x="865" y="444" width="50" height="10" as="geometry" />
        </mxCell>
        <mxCell id="zlBBdxe0bt9fsabpmSAy-166" value="39" style="text;html=1;strokeColor=none;fillColor=none;align=right;verticalAlign=middle;whiteSpace=wrap;rounded=0;rotation=0;fontSize=8;labelBackgroundColor=none;" parent="1" vertex="1">
          <mxGeometry x="865" y="454" width="50" height="10" as="geometry" />
        </mxCell>
        <mxCell id="zlBBdxe0bt9fsabpmSAy-167" value="41" style="text;html=1;strokeColor=none;fillColor=none;align=right;verticalAlign=middle;whiteSpace=wrap;rounded=0;rotation=0;fontSize=8;labelBackgroundColor=none;" parent="1" vertex="1">
          <mxGeometry x="865" y="464" width="50" height="10" as="geometry" />
        </mxCell>
        <mxCell id="zlBBdxe0bt9fsabpmSAy-168" value="43" style="text;html=1;strokeColor=none;fillColor=none;align=right;verticalAlign=middle;whiteSpace=wrap;rounded=0;rotation=0;fontSize=8;labelBackgroundColor=none;" parent="1" vertex="1">
          <mxGeometry x="865" y="474" width="50" height="10" as="geometry" />
        </mxCell>
        <mxCell id="zlBBdxe0bt9fsabpmSAy-169" value="45" style="text;html=1;strokeColor=none;fillColor=none;align=right;verticalAlign=middle;whiteSpace=wrap;rounded=0;rotation=0;fontSize=8;labelBackgroundColor=none;" parent="1" vertex="1">
          <mxGeometry x="865" y="484" width="50" height="10" as="geometry" />
        </mxCell>
        <mxCell id="zlBBdxe0bt9fsabpmSAy-170" value="47" style="text;html=1;strokeColor=none;fillColor=none;align=right;verticalAlign=middle;whiteSpace=wrap;rounded=0;rotation=0;fontSize=8;labelBackgroundColor=none;" parent="1" vertex="1">
          <mxGeometry x="865" y="494" width="50" height="10" as="geometry" />
        </mxCell>
        <mxCell id="zlBBdxe0bt9fsabpmSAy-171" value="49" style="text;html=1;strokeColor=none;fillColor=none;align=right;verticalAlign=middle;whiteSpace=wrap;rounded=0;rotation=0;fontSize=8;labelBackgroundColor=none;" parent="1" vertex="1">
          <mxGeometry x="865" y="504" width="50" height="10" as="geometry" />
        </mxCell>
        <mxCell id="zlBBdxe0bt9fsabpmSAy-172" value="51" style="text;html=1;strokeColor=none;fillColor=none;align=right;verticalAlign=middle;whiteSpace=wrap;rounded=0;rotation=0;fontSize=8;labelBackgroundColor=none;" parent="1" vertex="1">
          <mxGeometry x="865" y="514" width="50" height="10" as="geometry" />
        </mxCell>
        <mxCell id="zlBBdxe0bt9fsabpmSAy-173" value="53" style="text;html=1;strokeColor=none;fillColor=none;align=right;verticalAlign=middle;whiteSpace=wrap;rounded=0;rotation=0;fontSize=8;labelBackgroundColor=none;" parent="1" vertex="1">
          <mxGeometry x="865" y="524" width="50" height="10" as="geometry" />
        </mxCell>
        <mxCell id="zlBBdxe0bt9fsabpmSAy-174" value="GND" style="text;html=1;strokeColor=none;fillColor=none;align=left;verticalAlign=middle;whiteSpace=wrap;rounded=0;rotation=0;fontSize=8;labelBackgroundColor=none;" parent="1" vertex="1">
          <mxGeometry x="665" y="585" width="50" height="10" as="geometry" />
        </mxCell>
        <mxCell id="zlBBdxe0bt9fsabpmSAy-177" value="+5V" style="text;html=1;strokeColor=none;fillColor=none;align=right;verticalAlign=middle;whiteSpace=wrap;rounded=0;rotation=0;fontSize=8;labelBackgroundColor=none;" parent="1" vertex="1">
          <mxGeometry x="865" y="597" width="50" height="10" as="geometry" />
        </mxCell>
        <mxCell id="zlBBdxe0bt9fsabpmSAy-178" value="22" style="text;html=1;strokeColor=none;fillColor=none;align=left;verticalAlign=middle;whiteSpace=wrap;rounded=0;rotation=0;fontSize=8;labelBackgroundColor=none;" parent="1" vertex="1">
          <mxGeometry x="665" y="380" width="50" height="10" as="geometry" />
        </mxCell>
        <mxCell id="zlBBdxe0bt9fsabpmSAy-193" value="52" style="text;html=1;strokeColor=none;fillColor=none;align=left;verticalAlign=middle;whiteSpace=wrap;rounded=0;rotation=0;fontSize=8;labelBackgroundColor=none;" parent="1" vertex="1">
          <mxGeometry x="665" y="532" width="50" height="10" as="geometry" />
        </mxCell>
        <mxCell id="zlBBdxe0bt9fsabpmSAy-194" value="GND" style="text;html=1;strokeColor=none;fillColor=none;align=left;verticalAlign=middle;whiteSpace=wrap;rounded=0;rotation=0;fontSize=8;labelBackgroundColor=none;" parent="1" vertex="1">
          <mxGeometry x="665" y="597" width="50" height="10" as="geometry" />
        </mxCell>
        <mxCell id="zlBBdxe0bt9fsabpmSAy-218" value="" style="endArrow=none;html=1;rounded=0;fontSize=8;entryX=1;entryY=0.5;entryDx=0;entryDy=0;align=right;labelBackgroundColor=none;" parent="1" target="zlBBdxe0bt9fsabpmSAy-172" edge="1">
          <mxGeometry width="50" height="50" relative="1" as="geometry">
            <mxPoint x="922" y="519" as="sourcePoint" />
            <mxPoint x="724.88" y="620" as="targetPoint" />
          </mxGeometry>
        </mxCell>
        <mxCell id="zlBBdxe0bt9fsabpmSAy-219" value="" style="endArrow=none;html=1;rounded=0;fontSize=8;entryX=1;entryY=0.5;entryDx=0;entryDy=0;align=right;labelBackgroundColor=none;" parent="1" target="zlBBdxe0bt9fsabpmSAy-173" edge="1">
          <mxGeometry width="50" height="50" relative="1" as="geometry">
            <mxPoint x="922" y="529" as="sourcePoint" />
            <mxPoint x="714.88" y="620" as="targetPoint" />
          </mxGeometry>
        </mxCell>
        <mxCell id="zlBBdxe0bt9fsabpmSAy-246" value="(NC)" style="text;html=1;strokeColor=none;fillColor=none;align=left;verticalAlign=middle;whiteSpace=wrap;rounded=0;rotation=0;fontSize=8;labelBackgroundColor=none;" parent="1" vertex="1">
          <mxGeometry x="665" y="120" width="50" height="10" as="geometry" />
        </mxCell>
        <mxCell id="zlBBdxe0bt9fsabpmSAy-247" value="IOREF" style="text;html=1;strokeColor=none;fillColor=none;align=left;verticalAlign=middle;whiteSpace=wrap;rounded=0;rotation=0;fontSize=8;labelBackgroundColor=none;" parent="1" vertex="1">
          <mxGeometry x="665" y="130" width="50" height="10" as="geometry" />
        </mxCell>
        <mxCell id="zlBBdxe0bt9fsabpmSAy-248" value="RESET" style="text;html=1;strokeColor=none;fillColor=none;align=left;verticalAlign=middle;whiteSpace=wrap;rounded=0;rotation=0;fontSize=8;labelBackgroundColor=none;" parent="1" vertex="1">
          <mxGeometry x="665" y="140" width="50" height="10" as="geometry" />
        </mxCell>
        <mxCell id="zlBBdxe0bt9fsabpmSAy-249" value="3.3V" style="text;html=1;strokeColor=none;fillColor=none;align=left;verticalAlign=middle;whiteSpace=wrap;rounded=0;rotation=0;fontSize=8;labelBackgroundColor=none;" parent="1" vertex="1">
          <mxGeometry x="665" y="150" width="50" height="10" as="geometry" />
        </mxCell>
        <mxCell id="zlBBdxe0bt9fsabpmSAy-250" value="5V" style="text;html=1;strokeColor=none;fillColor=none;align=left;verticalAlign=middle;whiteSpace=wrap;rounded=0;rotation=0;fontSize=8;labelBackgroundColor=none;" parent="1" vertex="1">
          <mxGeometry x="665" y="160" width="50" height="10" as="geometry" />
        </mxCell>
        <mxCell id="zlBBdxe0bt9fsabpmSAy-251" value="GND" style="text;html=1;strokeColor=none;fillColor=none;align=left;verticalAlign=middle;whiteSpace=wrap;rounded=0;rotation=0;fontSize=8;labelBackgroundColor=none;" parent="1" vertex="1">
          <mxGeometry x="665" y="170" width="50" height="10" as="geometry" />
        </mxCell>
        <mxCell id="zlBBdxe0bt9fsabpmSAy-252" value="GND" style="text;html=1;strokeColor=none;fillColor=none;align=left;verticalAlign=middle;whiteSpace=wrap;rounded=0;rotation=0;fontSize=8;labelBackgroundColor=none;" parent="1" vertex="1">
          <mxGeometry x="665" y="180" width="50" height="10" as="geometry" />
        </mxCell>
        <mxCell id="zlBBdxe0bt9fsabpmSAy-253" value="VIN" style="text;html=1;strokeColor=none;fillColor=none;align=left;verticalAlign=middle;whiteSpace=wrap;rounded=0;rotation=0;fontSize=8;labelBackgroundColor=none;" parent="1" vertex="1">
          <mxGeometry x="665" y="190" width="50" height="10" as="geometry" />
        </mxCell>
        <mxCell id="zlBBdxe0bt9fsabpmSAy-254" value="" style="endArrow=none;html=1;rounded=0;fontSize=8;entryX=1;entryY=0.5;entryDx=0;entryDy=0;align=left;labelBackgroundColor=none;" parent="1" edge="1">
          <mxGeometry width="50" height="50" relative="1" as="geometry">
            <mxPoint x="665" y="125" as="sourcePoint" />
            <mxPoint x="655" y="125" as="targetPoint" />
          </mxGeometry>
        </mxCell>
        <mxCell id="zlBBdxe0bt9fsabpmSAy-255" value="" style="endArrow=none;html=1;rounded=0;fontSize=8;entryX=1;entryY=0.5;entryDx=0;entryDy=0;align=left;labelBackgroundColor=none;" parent="1" edge="1">
          <mxGeometry width="50" height="50" relative="1" as="geometry">
            <mxPoint x="665" y="134.89999999999986" as="sourcePoint" />
            <mxPoint x="655" y="134.89999999999986" as="targetPoint" />
          </mxGeometry>
        </mxCell>
        <mxCell id="zlBBdxe0bt9fsabpmSAy-256" value="" style="endArrow=none;html=1;rounded=0;fontSize=8;entryX=1;entryY=0.5;entryDx=0;entryDy=0;align=left;labelBackgroundColor=none;" parent="1" edge="1">
          <mxGeometry width="50" height="50" relative="1" as="geometry">
            <mxPoint x="665" y="145" as="sourcePoint" />
            <mxPoint x="655" y="145" as="targetPoint" />
          </mxGeometry>
        </mxCell>
        <mxCell id="zlBBdxe0bt9fsabpmSAy-257" value="" style="endArrow=none;html=1;rounded=0;fontSize=8;entryX=1;entryY=0.5;entryDx=0;entryDy=0;align=left;labelBackgroundColor=none;" parent="1" edge="1">
          <mxGeometry width="50" height="50" relative="1" as="geometry">
            <mxPoint x="665" y="155" as="sourcePoint" />
            <mxPoint x="655" y="155" as="targetPoint" />
          </mxGeometry>
        </mxCell>
        <mxCell id="zlBBdxe0bt9fsabpmSAy-261" value="" style="endArrow=none;html=1;rounded=0;fontSize=8;entryX=1;entryY=0.5;entryDx=0;entryDy=0;align=left;labelBackgroundColor=none;" parent="1" edge="1">
          <mxGeometry width="50" height="50" relative="1" as="geometry">
            <mxPoint x="665" y="194.9000000000001" as="sourcePoint" />
            <mxPoint x="655" y="194.9000000000001" as="targetPoint" />
          </mxGeometry>
        </mxCell>
        <mxCell id="zlBBdxe0bt9fsabpmSAy-265" value="" style="rounded=0;whiteSpace=wrap;html=1;fontSize=8;" parent="1" vertex="1">
          <mxGeometry x="1165" y="169" width="120" height="60" as="geometry" />
        </mxCell>
        <mxCell id="zlBBdxe0bt9fsabpmSAy-266" value="" style="rounded=0;whiteSpace=wrap;html=1;fontSize=8;" parent="1" vertex="1">
          <mxGeometry x="1165" y="257" width="120" height="60" as="geometry" />
        </mxCell>
        <mxCell id="zlBBdxe0bt9fsabpmSAy-267" value="" style="rounded=0;whiteSpace=wrap;html=1;fontSize=8;" parent="1" vertex="1">
          <mxGeometry x="1165" y="345" width="120" height="60" as="geometry" />
        </mxCell>
        <mxCell id="zlBBdxe0bt9fsabpmSAy-270" value="&lt;span style=&quot;font-size: 12px;&quot;&gt;ACS712T&lt;/span&gt;" style="text;html=1;align=center;verticalAlign=middle;resizable=0;points=[];autosize=1;strokeColor=none;fillColor=none;fontSize=11;fontStyle=2" parent="1" vertex="1">
          <mxGeometry x="295" y="229.5" width="70" height="20" as="geometry" />
        </mxCell>
        <mxCell id="zlBBdxe0bt9fsabpmSAy-271" value="HC-SR04" style="text;html=1;align=center;verticalAlign=middle;resizable=0;points=[];autosize=1;strokeColor=none;fillColor=none;fontSize=11;fontStyle=2" parent="1" vertex="1">
          <mxGeometry x="1225" y="237" width="60" height="20" as="geometry" />
        </mxCell>
        <mxCell id="zlBBdxe0bt9fsabpmSAy-272" value="HC-SR04" style="text;html=1;align=center;verticalAlign=middle;resizable=0;points=[];autosize=1;strokeColor=none;fillColor=none;fontSize=11;fontStyle=2" parent="1" vertex="1">
          <mxGeometry x="1225" y="324" width="60" height="20" as="geometry" />
        </mxCell>
        <mxCell id="zlBBdxe0bt9fsabpmSAy-273" value="VCC" style="text;html=1;strokeColor=none;fillColor=none;align=left;verticalAlign=middle;whiteSpace=wrap;rounded=0;rotation=0;fontSize=8;" parent="1" vertex="1">
          <mxGeometry x="1165" y="179" width="50" height="10" as="geometry" />
        </mxCell>
        <mxCell id="zlBBdxe0bt9fsabpmSAy-274" value="TRIG" style="text;html=1;strokeColor=none;fillColor=none;align=left;verticalAlign=middle;whiteSpace=wrap;rounded=0;rotation=0;fontSize=8;" parent="1" vertex="1">
          <mxGeometry x="1165" y="189" width="50" height="10" as="geometry" />
        </mxCell>
        <mxCell id="zlBBdxe0bt9fsabpmSAy-275" value="ECHO" style="text;html=1;strokeColor=none;fillColor=none;align=left;verticalAlign=middle;whiteSpace=wrap;rounded=0;rotation=0;fontSize=8;" parent="1" vertex="1">
          <mxGeometry x="1165" y="199" width="50" height="10" as="geometry" />
        </mxCell>
        <mxCell id="zlBBdxe0bt9fsabpmSAy-276" value="GND" style="text;html=1;strokeColor=none;fillColor=none;align=left;verticalAlign=middle;whiteSpace=wrap;rounded=0;rotation=0;fontSize=8;" parent="1" vertex="1">
          <mxGeometry x="1165" y="209" width="50" height="10" as="geometry" />
        </mxCell>
        <mxCell id="zlBBdxe0bt9fsabpmSAy-281" value="VCC" style="text;html=1;strokeColor=none;fillColor=none;align=left;verticalAlign=middle;whiteSpace=wrap;rounded=0;rotation=0;fontSize=8;" parent="1" vertex="1">
          <mxGeometry x="1165" y="267" width="50" height="10" as="geometry" />
        </mxCell>
        <mxCell id="zlBBdxe0bt9fsabpmSAy-282" value="TRIG" style="text;html=1;strokeColor=none;fillColor=none;align=left;verticalAlign=middle;whiteSpace=wrap;rounded=0;rotation=0;fontSize=8;" parent="1" vertex="1">
          <mxGeometry x="1165" y="277" width="50" height="10" as="geometry" />
        </mxCell>
        <mxCell id="zlBBdxe0bt9fsabpmSAy-283" value="ECHO" style="text;html=1;strokeColor=none;fillColor=none;align=left;verticalAlign=middle;whiteSpace=wrap;rounded=0;rotation=0;fontSize=8;" parent="1" vertex="1">
          <mxGeometry x="1165" y="287" width="50" height="10" as="geometry" />
        </mxCell>
        <mxCell id="zlBBdxe0bt9fsabpmSAy-284" value="GND" style="text;html=1;strokeColor=none;fillColor=none;align=left;verticalAlign=middle;whiteSpace=wrap;rounded=0;rotation=0;fontSize=8;" parent="1" vertex="1">
          <mxGeometry x="1165" y="297" width="50" height="10" as="geometry" />
        </mxCell>
        <mxCell id="zlBBdxe0bt9fsabpmSAy-289" value="VCC" style="text;html=1;strokeColor=none;fillColor=none;align=left;verticalAlign=middle;whiteSpace=wrap;rounded=0;rotation=0;fontSize=8;" parent="1" vertex="1">
          <mxGeometry x="1165" y="355" width="50" height="10" as="geometry" />
        </mxCell>
        <mxCell id="zlBBdxe0bt9fsabpmSAy-290" value="TRIG" style="text;html=1;strokeColor=none;fillColor=none;align=left;verticalAlign=middle;whiteSpace=wrap;rounded=0;rotation=0;fontSize=8;" parent="1" vertex="1">
          <mxGeometry x="1165" y="365" width="50" height="10" as="geometry" />
        </mxCell>
        <mxCell id="zlBBdxe0bt9fsabpmSAy-291" value="ECHO" style="text;html=1;strokeColor=none;fillColor=none;align=left;verticalAlign=middle;whiteSpace=wrap;rounded=0;rotation=0;fontSize=8;" parent="1" vertex="1">
          <mxGeometry x="1165" y="375" width="50" height="10" as="geometry" />
        </mxCell>
        <mxCell id="zlBBdxe0bt9fsabpmSAy-292" value="GND" style="text;html=1;strokeColor=none;fillColor=none;align=left;verticalAlign=middle;whiteSpace=wrap;rounded=0;rotation=0;fontSize=8;" parent="1" vertex="1">
          <mxGeometry x="1165" y="385" width="50" height="10" as="geometry" />
        </mxCell>
        <mxCell id="zlBBdxe0bt9fsabpmSAy-303" value="" style="rounded=0;whiteSpace=wrap;html=1;fontSize=8;" parent="1" vertex="1">
          <mxGeometry x="645" y="810" width="120" height="120" as="geometry" />
        </mxCell>
        <mxCell id="zlBBdxe0bt9fsabpmSAy-307" value="PWMA" style="text;html=1;strokeColor=none;fillColor=none;align=left;verticalAlign=middle;whiteSpace=wrap;rounded=0;rotation=0;fontSize=8;" parent="1" vertex="1">
          <mxGeometry x="645" y="830" width="50" height="10" as="geometry" />
        </mxCell>
        <mxCell id="zlBBdxe0bt9fsabpmSAy-308" value="AIN2" style="text;html=1;strokeColor=none;fillColor=none;align=left;verticalAlign=middle;whiteSpace=wrap;rounded=0;rotation=0;fontSize=8;" parent="1" vertex="1">
          <mxGeometry x="645" y="840" width="50" height="10" as="geometry" />
        </mxCell>
        <mxCell id="zlBBdxe0bt9fsabpmSAy-309" value="AIN1" style="text;html=1;strokeColor=none;fillColor=none;align=left;verticalAlign=middle;whiteSpace=wrap;rounded=0;rotation=0;fontSize=8;" parent="1" vertex="1">
          <mxGeometry x="645" y="850" width="50" height="10" as="geometry" />
        </mxCell>
        <mxCell id="zlBBdxe0bt9fsabpmSAy-310" value="STBY" style="text;html=1;strokeColor=none;fillColor=none;align=left;verticalAlign=middle;whiteSpace=wrap;rounded=0;rotation=0;fontSize=8;" parent="1" vertex="1">
          <mxGeometry x="645" y="860" width="50" height="10" as="geometry" />
        </mxCell>
        <mxCell id="zlBBdxe0bt9fsabpmSAy-311" value="BIN1" style="text;html=1;strokeColor=none;fillColor=none;align=left;verticalAlign=middle;whiteSpace=wrap;rounded=0;rotation=0;fontSize=8;" parent="1" vertex="1">
          <mxGeometry x="645" y="870" width="50" height="10" as="geometry" />
        </mxCell>
        <mxCell id="zlBBdxe0bt9fsabpmSAy-312" value="BIN2" style="text;html=1;strokeColor=none;fillColor=none;align=left;verticalAlign=middle;whiteSpace=wrap;rounded=0;rotation=0;fontSize=8;" parent="1" vertex="1">
          <mxGeometry x="645" y="880" width="50" height="10" as="geometry" />
        </mxCell>
        <mxCell id="zlBBdxe0bt9fsabpmSAy-313" value="PWMB" style="text;html=1;strokeColor=none;fillColor=none;align=left;verticalAlign=middle;whiteSpace=wrap;rounded=0;rotation=0;fontSize=8;" parent="1" vertex="1">
          <mxGeometry x="645" y="890" width="50" height="10" as="geometry" />
        </mxCell>
        <mxCell id="zlBBdxe0bt9fsabpmSAy-314" value="GND" style="text;html=1;strokeColor=none;fillColor=none;align=left;verticalAlign=middle;whiteSpace=wrap;rounded=0;rotation=0;fontSize=8;" parent="1" vertex="1">
          <mxGeometry x="645" y="900" width="50" height="10" as="geometry" />
        </mxCell>
        <mxCell id="zlBBdxe0bt9fsabpmSAy-315" value="VM" style="text;html=1;strokeColor=none;fillColor=none;align=right;verticalAlign=middle;whiteSpace=wrap;rounded=0;rotation=0;fontSize=8;" parent="1" vertex="1">
          <mxGeometry x="715" y="830" width="50" height="10" as="geometry" />
        </mxCell>
        <mxCell id="zlBBdxe0bt9fsabpmSAy-316" value="VCC" style="text;html=1;strokeColor=none;fillColor=none;align=right;verticalAlign=middle;whiteSpace=wrap;rounded=0;rotation=0;fontSize=8;" parent="1" vertex="1">
          <mxGeometry x="715" y="840" width="50" height="10" as="geometry" />
        </mxCell>
        <mxCell id="zlBBdxe0bt9fsabpmSAy-317" value="GND" style="text;html=1;strokeColor=none;fillColor=none;align=right;verticalAlign=middle;whiteSpace=wrap;rounded=0;rotation=0;fontSize=8;" parent="1" vertex="1">
          <mxGeometry x="715" y="850" width="50" height="10" as="geometry" />
        </mxCell>
        <mxCell id="zlBBdxe0bt9fsabpmSAy-318" value="A01" style="text;html=1;strokeColor=none;fillColor=none;align=right;verticalAlign=middle;whiteSpace=wrap;rounded=0;rotation=0;fontSize=8;" parent="1" vertex="1">
          <mxGeometry x="715" y="860" width="50" height="10" as="geometry" />
        </mxCell>
        <mxCell id="zlBBdxe0bt9fsabpmSAy-319" value="A02" style="text;html=1;strokeColor=none;fillColor=none;align=right;verticalAlign=middle;whiteSpace=wrap;rounded=0;rotation=0;fontSize=8;" parent="1" vertex="1">
          <mxGeometry x="715" y="870" width="50" height="10" as="geometry" />
        </mxCell>
        <mxCell id="zlBBdxe0bt9fsabpmSAy-320" value="B01" style="text;html=1;strokeColor=none;fillColor=none;align=right;verticalAlign=middle;whiteSpace=wrap;rounded=0;rotation=0;fontSize=8;" parent="1" vertex="1">
          <mxGeometry x="715" y="880" width="50" height="10" as="geometry" />
        </mxCell>
        <mxCell id="zlBBdxe0bt9fsabpmSAy-321" value="B02" style="text;html=1;strokeColor=none;fillColor=none;align=right;verticalAlign=middle;whiteSpace=wrap;rounded=0;rotation=0;fontSize=8;" parent="1" vertex="1">
          <mxGeometry x="715" y="890" width="50" height="10" as="geometry" />
        </mxCell>
        <mxCell id="zlBBdxe0bt9fsabpmSAy-322" value="GND" style="text;html=1;strokeColor=none;fillColor=none;align=right;verticalAlign=middle;whiteSpace=wrap;rounded=0;rotation=0;fontSize=8;" parent="1" vertex="1">
          <mxGeometry x="715" y="900" width="50" height="10" as="geometry" />
        </mxCell>
        <mxCell id="zlBBdxe0bt9fsabpmSAy-410" value="" style="endArrow=none;html=1;rounded=0;labelBackgroundColor=none;labelBorderColor=none;fontSize=8;fontColor=none;strokeColor=#000000;fillColor=#b0e3e6;exitX=1;exitY=0.5;exitDx=0;exitDy=0;entryX=0;entryY=0.5;entryDx=0;entryDy=0;" parent="1" source="zlBBdxe0bt9fsabpmSAy-318" target="tHKBDyenzgohp8NIYTpj-111" edge="1">
          <mxGeometry width="50" height="50" relative="1" as="geometry">
            <mxPoint x="775" y="906" as="sourcePoint" />
            <mxPoint x="896" y="671" as="targetPoint" />
            <Array as="points">
              <mxPoint x="869" y="865" />
              <mxPoint x="869" y="835" />
            </Array>
          </mxGeometry>
        </mxCell>
        <mxCell id="zlBBdxe0bt9fsabpmSAy-413" value="" style="endArrow=none;html=1;rounded=0;labelBackgroundColor=none;labelBorderColor=none;fontSize=8;fontColor=none;strokeColor=#000000;fillColor=#b0e3e6;" parent="1" source="zlBBdxe0bt9fsabpmSAy-319" target="tHKBDyenzgohp8NIYTpj-111" edge="1">
          <mxGeometry width="50" height="50" relative="1" as="geometry">
            <mxPoint x="770" y="875" as="sourcePoint" />
            <mxPoint x="1014.5" y="814" as="targetPoint" />
            <Array as="points">
              <mxPoint x="839" y="875" />
              <mxPoint x="1029" y="875" />
              <mxPoint x="1029" y="835" />
            </Array>
          </mxGeometry>
        </mxCell>
        <mxCell id="zlBBdxe0bt9fsabpmSAy-416" value="" style="endArrow=none;html=1;rounded=0;labelBackgroundColor=none;labelBorderColor=none;fontSize=8;fontColor=none;strokeColor=#000000;fillColor=#0050ef;exitX=1;exitY=0.5;exitDx=0;exitDy=0;entryX=1;entryY=0.5;entryDx=0;entryDy=0;" parent="1" source="zlBBdxe0bt9fsabpmSAy-320" target="tHKBDyenzgohp8NIYTpj-112" edge="1">
          <mxGeometry width="50" height="50" relative="1" as="geometry">
            <mxPoint x="735" y="896" as="sourcePoint" />
            <mxPoint x="896" y="791" as="targetPoint" />
            <Array as="points">
              <mxPoint x="869" y="885" />
              <mxPoint x="1029" y="885" />
              <mxPoint x="1029" y="925" />
            </Array>
          </mxGeometry>
        </mxCell>
        <mxCell id="zlBBdxe0bt9fsabpmSAy-433" value="" style="rounded=0;whiteSpace=wrap;html=1;fontSize=8;fontColor=none;strokeColor=#000000;" parent="1" vertex="1">
          <mxGeometry x="255" y="249.5" width="100" height="60" as="geometry" />
        </mxCell>
        <mxCell id="zlBBdxe0bt9fsabpmSAy-452" value="VCC" style="text;html=1;strokeColor=none;fillColor=none;align=right;verticalAlign=middle;whiteSpace=wrap;rounded=0;rotation=0;fontSize=8;" parent="1" vertex="1">
          <mxGeometry x="305" y="259.5" width="50" height="10" as="geometry" />
        </mxCell>
        <mxCell id="zlBBdxe0bt9fsabpmSAy-454" value="OUT" style="text;html=1;strokeColor=none;fillColor=none;align=right;verticalAlign=middle;whiteSpace=wrap;rounded=0;rotation=0;fontSize=8;" parent="1" vertex="1">
          <mxGeometry x="305" y="270" width="50" height="10" as="geometry" />
        </mxCell>
        <mxCell id="zlBBdxe0bt9fsabpmSAy-455" value="GND" style="text;html=1;strokeColor=none;fillColor=none;align=right;verticalAlign=middle;whiteSpace=wrap;rounded=0;rotation=0;fontSize=8;" parent="1" vertex="1">
          <mxGeometry x="305" y="279.5" width="50" height="10" as="geometry" />
        </mxCell>
        <mxCell id="zlBBdxe0bt9fsabpmSAy-456" value="HC-SR04" style="text;html=1;align=center;verticalAlign=middle;resizable=0;points=[];autosize=1;strokeColor=none;fillColor=none;fontSize=11;fontStyle=2" parent="1" vertex="1">
          <mxGeometry x="1225" y="148" width="60" height="20" as="geometry" />
        </mxCell>
        <mxCell id="tHKBDyenzgohp8NIYTpj-2" value="" style="rounded=0;whiteSpace=wrap;html=1;" parent="1" vertex="1">
          <mxGeometry x="378.5" y="49.5" width="27.5" height="60" as="geometry" />
        </mxCell>
        <mxCell id="tHKBDyenzgohp8NIYTpj-4" value="JP1" style="text;html=1;strokeColor=none;fillColor=none;align=left;verticalAlign=middle;whiteSpace=wrap;rounded=0;rotation=0;fontSize=11;" parent="1" vertex="1">
          <mxGeometry x="355" y="75.5" width="50" height="10" as="geometry" />
        </mxCell>
        <mxCell id="tHKBDyenzgohp8NIYTpj-5" value="1" style="text;html=1;strokeColor=none;fillColor=none;align=center;verticalAlign=middle;whiteSpace=wrap;rounded=0;rotation=0;fontSize=8;" parent="1" vertex="1">
          <mxGeometry x="382.5" y="59.5" width="22.5" height="10" as="geometry" />
        </mxCell>
        <mxCell id="tHKBDyenzgohp8NIYTpj-6" value="2" style="text;html=1;strokeColor=none;fillColor=none;align=center;verticalAlign=middle;whiteSpace=wrap;rounded=0;rotation=0;fontSize=8;" parent="1" vertex="1">
          <mxGeometry x="382.5" y="69.5" width="22.5" height="10" as="geometry" />
        </mxCell>
        <mxCell id="tHKBDyenzgohp8NIYTpj-7" value="3" style="text;html=1;strokeColor=none;fillColor=none;align=center;verticalAlign=middle;whiteSpace=wrap;rounded=0;rotation=0;fontSize=8;" parent="1" vertex="1">
          <mxGeometry x="382.5" y="79.5" width="22.5" height="10" as="geometry" />
        </mxCell>
        <mxCell id="tHKBDyenzgohp8NIYTpj-8" value="4" style="text;html=1;strokeColor=none;fillColor=none;align=center;verticalAlign=middle;whiteSpace=wrap;rounded=0;rotation=0;fontSize=8;" parent="1" vertex="1">
          <mxGeometry x="382.5" y="89.5" width="22.5" height="10" as="geometry" />
        </mxCell>
        <mxCell id="tHKBDyenzgohp8NIYTpj-32" value="" style="ellipse;whiteSpace=wrap;html=1;fillColor=#000000;" parent="1" vertex="1">
          <mxGeometry x="1409.25" y="148" width="4" height="4" as="geometry" />
        </mxCell>
        <mxCell id="tHKBDyenzgohp8NIYTpj-70" value="" style="ellipse;whiteSpace=wrap;html=1;fillColor=#FFFFFF;" parent="1" vertex="1">
          <mxGeometry x="909.75" y="800" width="79" height="70" as="geometry" />
        </mxCell>
        <mxCell id="tHKBDyenzgohp8NIYTpj-71" value="" style="ellipse;whiteSpace=wrap;html=1;fillColor=#FFFFFF;" parent="1" vertex="1">
          <mxGeometry x="921.5" y="810" width="55.5" height="50" as="geometry" />
        </mxCell>
        <mxCell id="tHKBDyenzgohp8NIYTpj-72" value="М" style="text;html=1;strokeColor=none;fillColor=none;align=center;verticalAlign=middle;whiteSpace=wrap;rounded=0;strokeWidth=1;fontSize=25;" parent="1" vertex="1">
          <mxGeometry x="919" y="819" width="60" height="30" as="geometry" />
        </mxCell>
        <mxCell id="tHKBDyenzgohp8NIYTpj-73" value="24" style="text;html=1;strokeColor=none;fillColor=none;align=left;verticalAlign=middle;whiteSpace=wrap;rounded=0;rotation=0;fontSize=8;labelBackgroundColor=none;" parent="1" vertex="1">
          <mxGeometry x="665" y="390" width="50" height="10" as="geometry" />
        </mxCell>
        <mxCell id="tHKBDyenzgohp8NIYTpj-74" value="26" style="text;html=1;strokeColor=none;fillColor=none;align=left;verticalAlign=middle;whiteSpace=wrap;rounded=0;rotation=0;fontSize=8;labelBackgroundColor=none;" parent="1" vertex="1">
          <mxGeometry x="665" y="400" width="50" height="11" as="geometry" />
        </mxCell>
        <mxCell id="tHKBDyenzgohp8NIYTpj-75" value="28" style="text;html=1;strokeColor=none;fillColor=none;align=left;verticalAlign=middle;whiteSpace=wrap;rounded=0;rotation=0;fontSize=8;labelBackgroundColor=none;" parent="1" vertex="1">
          <mxGeometry x="665" y="411" width="50" height="10" as="geometry" />
        </mxCell>
        <mxCell id="tHKBDyenzgohp8NIYTpj-76" value="30" style="text;html=1;strokeColor=none;fillColor=none;align=left;verticalAlign=middle;whiteSpace=wrap;rounded=0;rotation=0;fontSize=8;labelBackgroundColor=none;" parent="1" vertex="1">
          <mxGeometry x="665" y="421" width="50" height="10" as="geometry" />
        </mxCell>
        <mxCell id="tHKBDyenzgohp8NIYTpj-77" value="32" style="text;html=1;strokeColor=none;fillColor=none;align=left;verticalAlign=middle;whiteSpace=wrap;rounded=0;rotation=0;fontSize=8;labelBackgroundColor=none;" parent="1" vertex="1">
          <mxGeometry x="665" y="431" width="50" height="10" as="geometry" />
        </mxCell>
        <mxCell id="tHKBDyenzgohp8NIYTpj-78" value="34" style="text;html=1;strokeColor=none;fillColor=none;align=left;verticalAlign=middle;whiteSpace=wrap;rounded=0;rotation=0;fontSize=8;labelBackgroundColor=none;" parent="1" vertex="1">
          <mxGeometry x="665" y="441" width="50" height="10" as="geometry" />
        </mxCell>
        <mxCell id="tHKBDyenzgohp8NIYTpj-79" value="36" style="text;html=1;strokeColor=none;fillColor=none;align=left;verticalAlign=middle;whiteSpace=wrap;rounded=0;rotation=0;fontSize=8;labelBackgroundColor=none;" parent="1" vertex="1">
          <mxGeometry x="665" y="451" width="50" height="10" as="geometry" />
        </mxCell>
        <mxCell id="tHKBDyenzgohp8NIYTpj-80" value="38" style="text;html=1;strokeColor=none;fillColor=none;align=left;verticalAlign=middle;whiteSpace=wrap;rounded=0;rotation=0;fontSize=8;labelBackgroundColor=none;" parent="1" vertex="1">
          <mxGeometry x="665" y="461" width="50" height="10" as="geometry" />
        </mxCell>
        <mxCell id="tHKBDyenzgohp8NIYTpj-81" value="40" style="text;html=1;strokeColor=none;fillColor=none;align=left;verticalAlign=middle;whiteSpace=wrap;rounded=0;rotation=0;fontSize=8;labelBackgroundColor=none;" parent="1" vertex="1">
          <mxGeometry x="665" y="471" width="50" height="10" as="geometry" />
        </mxCell>
        <mxCell id="tHKBDyenzgohp8NIYTpj-82" value="42" style="text;html=1;strokeColor=none;fillColor=none;align=left;verticalAlign=middle;whiteSpace=wrap;rounded=0;rotation=0;fontSize=8;labelBackgroundColor=none;" parent="1" vertex="1">
          <mxGeometry x="665" y="481" width="50" height="10" as="geometry" />
        </mxCell>
        <mxCell id="tHKBDyenzgohp8NIYTpj-83" value="44" style="text;html=1;strokeColor=none;fillColor=none;align=left;verticalAlign=middle;whiteSpace=wrap;rounded=0;rotation=0;fontSize=8;labelBackgroundColor=none;" parent="1" vertex="1">
          <mxGeometry x="665" y="492" width="50" height="10" as="geometry" />
        </mxCell>
        <mxCell id="tHKBDyenzgohp8NIYTpj-84" value="46" style="text;html=1;strokeColor=none;fillColor=none;align=left;verticalAlign=middle;whiteSpace=wrap;rounded=0;rotation=0;fontSize=8;labelBackgroundColor=none;" parent="1" vertex="1">
          <mxGeometry x="665" y="502" width="50" height="10" as="geometry" />
        </mxCell>
        <mxCell id="tHKBDyenzgohp8NIYTpj-85" value="48" style="text;html=1;strokeColor=none;fillColor=none;align=left;verticalAlign=middle;whiteSpace=wrap;rounded=0;rotation=0;fontSize=8;labelBackgroundColor=none;" parent="1" vertex="1">
          <mxGeometry x="665" y="512" width="50" height="10" as="geometry" />
        </mxCell>
        <mxCell id="tHKBDyenzgohp8NIYTpj-86" value="50" style="text;html=1;strokeColor=none;fillColor=none;align=left;verticalAlign=middle;whiteSpace=wrap;rounded=0;rotation=0;fontSize=8;labelBackgroundColor=none;" parent="1" vertex="1">
          <mxGeometry x="665" y="522" width="50" height="10" as="geometry" />
        </mxCell>
        <mxCell id="tHKBDyenzgohp8NIYTpj-89" value="" style="endArrow=none;html=1;rounded=0;fontSize=8;entryX=1;entryY=0.5;entryDx=0;entryDy=0;align=left;labelBackgroundColor=none;" parent="1" edge="1">
          <mxGeometry width="50" height="50" relative="1" as="geometry">
            <mxPoint x="665" y="386" as="sourcePoint" />
            <mxPoint x="655" y="386" as="targetPoint" />
          </mxGeometry>
        </mxCell>
        <mxCell id="tHKBDyenzgohp8NIYTpj-90" value="" style="endArrow=none;html=1;rounded=0;fontSize=8;entryX=1;entryY=0.5;entryDx=0;entryDy=0;align=left;labelBackgroundColor=none;" parent="1" edge="1">
          <mxGeometry width="50" height="50" relative="1" as="geometry">
            <mxPoint x="665" y="395.89999999999986" as="sourcePoint" />
            <mxPoint x="655" y="395.89999999999986" as="targetPoint" />
          </mxGeometry>
        </mxCell>
        <mxCell id="tHKBDyenzgohp8NIYTpj-91" value="" style="endArrow=none;html=1;rounded=0;fontSize=8;entryX=1;entryY=0.5;entryDx=0;entryDy=0;align=left;labelBackgroundColor=none;" parent="1" edge="1">
          <mxGeometry width="50" height="50" relative="1" as="geometry">
            <mxPoint x="665" y="406" as="sourcePoint" />
            <mxPoint x="655" y="406" as="targetPoint" />
          </mxGeometry>
        </mxCell>
        <mxCell id="tHKBDyenzgohp8NIYTpj-92" value="" style="endArrow=none;html=1;rounded=0;fontSize=8;entryX=1;entryY=0.5;entryDx=0;entryDy=0;align=left;labelBackgroundColor=none;" parent="1" edge="1">
          <mxGeometry width="50" height="50" relative="1" as="geometry">
            <mxPoint x="665" y="416" as="sourcePoint" />
            <mxPoint x="655" y="416" as="targetPoint" />
          </mxGeometry>
        </mxCell>
        <mxCell id="tHKBDyenzgohp8NIYTpj-93" value="" style="endArrow=none;html=1;rounded=0;fontSize=8;entryX=1;entryY=0.5;entryDx=0;entryDy=0;align=left;labelBackgroundColor=none;" parent="1" edge="1">
          <mxGeometry width="50" height="50" relative="1" as="geometry">
            <mxPoint x="665" y="425.9000000000001" as="sourcePoint" />
            <mxPoint x="655" y="425.9000000000001" as="targetPoint" />
          </mxGeometry>
        </mxCell>
        <mxCell id="tHKBDyenzgohp8NIYTpj-94" value="" style="endArrow=none;html=1;rounded=0;fontSize=8;entryX=1;entryY=0.5;entryDx=0;entryDy=0;align=left;labelBackgroundColor=none;" parent="1" edge="1">
          <mxGeometry width="50" height="50" relative="1" as="geometry">
            <mxPoint x="665" y="436" as="sourcePoint" />
            <mxPoint x="655" y="436" as="targetPoint" />
          </mxGeometry>
        </mxCell>
        <mxCell id="tHKBDyenzgohp8NIYTpj-95" value="" style="endArrow=none;html=1;rounded=0;fontSize=8;entryX=1;entryY=0.5;entryDx=0;entryDy=0;align=left;labelBackgroundColor=none;" parent="1" edge="1">
          <mxGeometry width="50" height="50" relative="1" as="geometry">
            <mxPoint x="665" y="446" as="sourcePoint" />
            <mxPoint x="655" y="446" as="targetPoint" />
          </mxGeometry>
        </mxCell>
        <mxCell id="tHKBDyenzgohp8NIYTpj-96" value="" style="endArrow=none;html=1;rounded=0;fontSize=8;entryX=1;entryY=0.5;entryDx=0;entryDy=0;align=left;labelBackgroundColor=none;" parent="1" edge="1">
          <mxGeometry width="50" height="50" relative="1" as="geometry">
            <mxPoint x="665" y="455.9000000000001" as="sourcePoint" />
            <mxPoint x="655" y="455.9000000000001" as="targetPoint" />
          </mxGeometry>
        </mxCell>
        <mxCell id="tHKBDyenzgohp8NIYTpj-97" value="" style="endArrow=none;html=1;rounded=0;fontSize=8;entryX=1;entryY=0.5;entryDx=0;entryDy=0;align=left;labelBackgroundColor=none;" parent="1" edge="1">
          <mxGeometry width="50" height="50" relative="1" as="geometry">
            <mxPoint x="665" y="466" as="sourcePoint" />
            <mxPoint x="655" y="466" as="targetPoint" />
          </mxGeometry>
        </mxCell>
        <mxCell id="tHKBDyenzgohp8NIYTpj-98" value="" style="endArrow=none;html=1;rounded=0;fontSize=8;entryX=1;entryY=0.5;entryDx=0;entryDy=0;align=left;labelBackgroundColor=none;" parent="1" edge="1">
          <mxGeometry width="50" height="50" relative="1" as="geometry">
            <mxPoint x="665" y="476.89999999999986" as="sourcePoint" />
            <mxPoint x="655" y="476.89999999999986" as="targetPoint" />
          </mxGeometry>
        </mxCell>
        <mxCell id="tHKBDyenzgohp8NIYTpj-99" value="" style="endArrow=none;html=1;rounded=0;fontSize=8;entryX=1;entryY=0.5;entryDx=0;entryDy=0;align=left;labelBackgroundColor=none;" parent="1" edge="1">
          <mxGeometry width="50" height="50" relative="1" as="geometry">
            <mxPoint x="665" y="487" as="sourcePoint" />
            <mxPoint x="655" y="487" as="targetPoint" />
          </mxGeometry>
        </mxCell>
        <mxCell id="tHKBDyenzgohp8NIYTpj-100" value="" style="endArrow=none;html=1;rounded=0;fontSize=8;entryX=1;entryY=0.5;entryDx=0;entryDy=0;align=left;labelBackgroundColor=none;" parent="1" edge="1">
          <mxGeometry width="50" height="50" relative="1" as="geometry">
            <mxPoint x="665" y="497" as="sourcePoint" />
            <mxPoint x="655" y="497" as="targetPoint" />
          </mxGeometry>
        </mxCell>
        <mxCell id="tHKBDyenzgohp8NIYTpj-101" value="" style="endArrow=none;html=1;rounded=0;fontSize=8;entryX=1;entryY=0.5;entryDx=0;entryDy=0;align=left;labelBackgroundColor=none;" parent="1" edge="1">
          <mxGeometry width="50" height="50" relative="1" as="geometry">
            <mxPoint x="665" y="506.9000000000001" as="sourcePoint" />
            <mxPoint x="655" y="506.9000000000001" as="targetPoint" />
          </mxGeometry>
        </mxCell>
        <mxCell id="tHKBDyenzgohp8NIYTpj-102" value="" style="endArrow=none;html=1;rounded=0;fontSize=8;entryX=1;entryY=0.5;entryDx=0;entryDy=0;align=left;labelBackgroundColor=none;" parent="1" edge="1">
          <mxGeometry width="50" height="50" relative="1" as="geometry">
            <mxPoint x="665" y="517" as="sourcePoint" />
            <mxPoint x="655" y="517" as="targetPoint" />
          </mxGeometry>
        </mxCell>
        <mxCell id="tHKBDyenzgohp8NIYTpj-103" value="" style="endArrow=none;html=1;rounded=0;fontSize=8;entryX=1;entryY=0.5;entryDx=0;entryDy=0;align=left;labelBackgroundColor=none;" parent="1" edge="1">
          <mxGeometry width="50" height="50" relative="1" as="geometry">
            <mxPoint x="665" y="527" as="sourcePoint" />
            <mxPoint x="655" y="527" as="targetPoint" />
          </mxGeometry>
        </mxCell>
        <mxCell id="tHKBDyenzgohp8NIYTpj-104" value="" style="endArrow=none;html=1;rounded=0;fontSize=8;entryX=1;entryY=0.5;entryDx=0;entryDy=0;align=left;labelBackgroundColor=none;" parent="1" edge="1">
          <mxGeometry width="50" height="50" relative="1" as="geometry">
            <mxPoint x="665" y="536.9000000000001" as="sourcePoint" />
            <mxPoint x="655" y="536.9000000000001" as="targetPoint" />
          </mxGeometry>
        </mxCell>
        <mxCell id="tHKBDyenzgohp8NIYTpj-112" value="" style="rounded=0;whiteSpace=wrap;html=1;fontSize=25;strokeWidth=1;fillColor=#FFFFFF;" parent="1" vertex="1">
          <mxGeometry x="889" y="895" width="120" height="60" as="geometry" />
        </mxCell>
        <mxCell id="tHKBDyenzgohp8NIYTpj-113" value="" style="ellipse;whiteSpace=wrap;html=1;fillColor=#FFFFFF;" parent="1" vertex="1">
          <mxGeometry x="909.5" y="890" width="79" height="70" as="geometry" />
        </mxCell>
        <mxCell id="tHKBDyenzgohp8NIYTpj-114" value="" style="ellipse;whiteSpace=wrap;html=1;fillColor=#FFFFFF;" parent="1" vertex="1">
          <mxGeometry x="921.25" y="900" width="55.5" height="50" as="geometry" />
        </mxCell>
        <mxCell id="tHKBDyenzgohp8NIYTpj-115" value="М" style="text;html=1;strokeColor=none;fillColor=none;align=center;verticalAlign=middle;whiteSpace=wrap;rounded=0;strokeWidth=1;fontSize=25;" parent="1" vertex="1">
          <mxGeometry x="918.75" y="909" width="60" height="30" as="geometry" />
        </mxCell>
        <mxCell id="tHKBDyenzgohp8NIYTpj-125" value="&lt;font style=&quot;font-size: 12px;&quot;&gt;&lt;i style=&quot;font-size: 12px;&quot;&gt;DD1&lt;/i&gt;&lt;/font&gt;" style="text;html=1;align=center;verticalAlign=middle;resizable=0;points=[];autosize=1;strokeColor=none;fillColor=none;fontSize=12;strokeWidth=1;labelBackgroundColor=none;" parent="1" vertex="1">
          <mxGeometry x="665" y="35" width="40" height="20" as="geometry" />
        </mxCell>
        <mxCell id="tHKBDyenzgohp8NIYTpj-126" value="&lt;font style=&quot;font-size: 12px;&quot;&gt;&lt;i style=&quot;font-size: 12px;&quot;&gt;DD2&lt;/i&gt;&lt;/font&gt;" style="text;html=1;align=center;verticalAlign=middle;resizable=0;points=[];autosize=1;strokeColor=none;fillColor=none;fontSize=12;strokeWidth=1;" parent="1" vertex="1">
          <mxGeometry x="1165" y="149" width="40" height="20" as="geometry" />
        </mxCell>
        <mxCell id="tHKBDyenzgohp8NIYTpj-127" value="&lt;font style=&quot;font-size: 12px;&quot;&gt;&lt;i style=&quot;font-size: 12px;&quot;&gt;DD3&lt;/i&gt;&lt;/font&gt;" style="text;html=1;align=center;verticalAlign=middle;resizable=0;points=[];autosize=1;strokeColor=none;fillColor=none;fontSize=12;strokeWidth=1;" parent="1" vertex="1">
          <mxGeometry x="1165" y="237" width="40" height="20" as="geometry" />
        </mxCell>
        <mxCell id="tHKBDyenzgohp8NIYTpj-128" value="&lt;font style=&quot;font-size: 12px;&quot;&gt;&lt;i style=&quot;font-size: 12px;&quot;&gt;DD4&lt;/i&gt;&lt;/font&gt;" style="text;html=1;align=center;verticalAlign=middle;resizable=0;points=[];autosize=1;strokeColor=none;fillColor=none;fontSize=12;strokeWidth=1;" parent="1" vertex="1">
          <mxGeometry x="1165" y="324" width="40" height="20" as="geometry" />
        </mxCell>
        <mxCell id="tHKBDyenzgohp8NIYTpj-129" value="&lt;font style=&quot;font-size: 12px;&quot;&gt;&lt;i style=&quot;font-size: 12px;&quot;&gt;DD5&lt;/i&gt;&lt;/font&gt;" style="text;html=1;align=center;verticalAlign=middle;resizable=0;points=[];autosize=1;strokeColor=none;fillColor=none;fontSize=12;strokeWidth=1;" parent="1" vertex="1">
          <mxGeometry x="645" y="789" width="40" height="20" as="geometry" />
        </mxCell>
        <mxCell id="tHKBDyenzgohp8NIYTpj-131" value="TB6612" style="text;html=1;align=center;verticalAlign=middle;resizable=0;points=[];autosize=1;strokeColor=none;fillColor=none;fontSize=11;fontStyle=2" parent="1" vertex="1">
          <mxGeometry x="715" y="790" width="50" height="20" as="geometry" />
        </mxCell>
        <mxCell id="tHKBDyenzgohp8NIYTpj-132" value="&lt;font style=&quot;font-size: 12px;&quot;&gt;&lt;i style=&quot;font-size: 12px;&quot;&gt;DD6&lt;/i&gt;&lt;/font&gt;" style="text;html=1;align=center;verticalAlign=middle;resizable=0;points=[];autosize=1;strokeColor=none;fillColor=none;fontSize=12;strokeWidth=1;" parent="1" vertex="1">
          <mxGeometry x="250" y="224.5" width="50" height="30" as="geometry" />
        </mxCell>
        <mxCell id="tHKBDyenzgohp8NIYTpj-136" value="1" style="text;html=1;align=center;verticalAlign=middle;resizable=0;points=[];autosize=1;strokeColor=none;fillColor=none;fontSize=7;rotation=0;fontColor=default;labelBackgroundColor=none;" parent="1" vertex="1">
          <mxGeometry x="650" y="97" width="20" height="10" as="geometry" />
        </mxCell>
        <mxCell id="tHKBDyenzgohp8NIYTpj-137" value="2" style="text;html=1;align=center;verticalAlign=middle;resizable=0;points=[];autosize=1;strokeColor=none;fillColor=none;fontSize=7;rotation=0;fontColor=#000000;labelBackgroundColor=none;" parent="1" vertex="1">
          <mxGeometry x="650" y="106" width="20" height="10" as="geometry" />
        </mxCell>
        <mxCell id="tHKBDyenzgohp8NIYTpj-138" value="3" style="text;html=1;align=center;verticalAlign=middle;resizable=0;points=[];autosize=1;strokeColor=none;fillColor=none;fontSize=7;rotation=0;labelBackgroundColor=none;" parent="1" vertex="1">
          <mxGeometry x="650" y="57" width="20" height="10" as="geometry" />
        </mxCell>
        <mxCell id="tHKBDyenzgohp8NIYTpj-139" value="4" style="text;html=1;align=center;verticalAlign=middle;resizable=0;points=[];autosize=1;strokeColor=none;fillColor=none;fontSize=7;rotation=0;labelBackgroundColor=none;" parent="1" vertex="1">
          <mxGeometry x="650" y="67" width="20" height="10" as="geometry" />
        </mxCell>
        <mxCell id="tHKBDyenzgohp8NIYTpj-140" value="5" style="text;html=1;align=center;verticalAlign=middle;resizable=0;points=[];autosize=1;strokeColor=none;fillColor=none;fontSize=7;rotation=0;labelBackgroundColor=none;" parent="1" vertex="1">
          <mxGeometry x="650" y="76" width="20" height="10" as="geometry" />
        </mxCell>
        <mxCell id="tHKBDyenzgohp8NIYTpj-141" value="6" style="text;html=1;align=center;verticalAlign=middle;resizable=0;points=[];autosize=1;strokeColor=none;fillColor=none;fontSize=7;rotation=0;labelBackgroundColor=none;" parent="1" vertex="1">
          <mxGeometry x="650" y="86" width="20" height="10" as="geometry" />
        </mxCell>
        <mxCell id="tHKBDyenzgohp8NIYTpj-142" value="7" style="text;html=1;align=center;verticalAlign=middle;resizable=0;points=[];autosize=1;strokeColor=none;fillColor=none;fontSize=7;rotation=0;labelBackgroundColor=none;" parent="1" vertex="1">
          <mxGeometry x="649" y="157" width="20" height="10" as="geometry" />
        </mxCell>
        <mxCell id="tHKBDyenzgohp8NIYTpj-144" value="8" style="text;html=1;align=center;verticalAlign=middle;resizable=0;points=[];autosize=1;strokeColor=none;fillColor=none;fontSize=7;rotation=0;labelBackgroundColor=none;" parent="1" vertex="1">
          <mxGeometry x="649" y="167" width="20" height="10" as="geometry" />
        </mxCell>
        <mxCell id="tHKBDyenzgohp8NIYTpj-145" value="9" style="text;html=1;align=center;verticalAlign=middle;resizable=0;points=[];autosize=1;strokeColor=none;fillColor=none;fontSize=7;rotation=0;labelBackgroundColor=none;" parent="1" vertex="1">
          <mxGeometry x="910" y="592" width="20" height="10" as="geometry" />
        </mxCell>
        <mxCell id="tHKBDyenzgohp8NIYTpj-146" value="10" style="text;html=1;align=center;verticalAlign=middle;resizable=0;points=[];autosize=1;strokeColor=none;fillColor=none;fontSize=7;rotation=0;labelBackgroundColor=none;" parent="1" vertex="1">
          <mxGeometry x="649" y="581" width="20" height="10" as="geometry" />
        </mxCell>
        <mxCell id="tHKBDyenzgohp8NIYTpj-148" value="11" style="text;html=1;align=center;verticalAlign=middle;resizable=0;points=[];autosize=1;strokeColor=none;fillColor=none;fontSize=7;rotation=0;labelBackgroundColor=none;" parent="1" vertex="1">
          <mxGeometry x="649" y="592" width="20" height="10" as="geometry" />
        </mxCell>
        <mxCell id="tHKBDyenzgohp8NIYTpj-149" value="13" style="text;html=1;align=center;verticalAlign=middle;resizable=0;points=[];autosize=1;strokeColor=none;fillColor=none;fontSize=7;rotation=0;labelBackgroundColor=none;" parent="1" vertex="1">
          <mxGeometry x="910" y="122" width="20" height="10" as="geometry" />
        </mxCell>
        <mxCell id="tHKBDyenzgohp8NIYTpj-151" value="14" style="text;html=1;align=center;verticalAlign=middle;resizable=0;points=[];autosize=1;strokeColor=none;fillColor=none;fontSize=7;rotation=0;labelBackgroundColor=none;" parent="1" vertex="1">
          <mxGeometry x="910" y="132" width="20" height="10" as="geometry" />
        </mxCell>
        <mxCell id="tHKBDyenzgohp8NIYTpj-152" value="15" style="text;html=1;align=center;verticalAlign=middle;resizable=0;points=[];autosize=1;strokeColor=none;fillColor=none;fontSize=7;rotation=0;labelBackgroundColor=none;" parent="1" vertex="1">
          <mxGeometry x="910" y="142" width="20" height="10" as="geometry" />
        </mxCell>
        <mxCell id="tHKBDyenzgohp8NIYTpj-153" value="16" style="text;html=1;align=center;verticalAlign=middle;resizable=0;points=[];autosize=1;strokeColor=none;fillColor=none;fontSize=7;rotation=0;labelBackgroundColor=none;" parent="1" vertex="1">
          <mxGeometry x="910" y="152" width="20" height="10" as="geometry" />
        </mxCell>
        <mxCell id="tHKBDyenzgohp8NIYTpj-154" value="17" style="text;html=1;align=center;verticalAlign=middle;resizable=0;points=[];autosize=1;strokeColor=none;fillColor=none;fontSize=7;rotation=0;labelBackgroundColor=none;" parent="1" vertex="1">
          <mxGeometry x="910" y="162" width="20" height="10" as="geometry" />
        </mxCell>
        <mxCell id="tHKBDyenzgohp8NIYTpj-155" value="18" style="text;html=1;align=center;verticalAlign=middle;resizable=0;points=[];autosize=1;strokeColor=none;fillColor=none;fontSize=7;rotation=0;labelBackgroundColor=none;" parent="1" vertex="1">
          <mxGeometry x="910" y="172" width="20" height="10" as="geometry" />
        </mxCell>
        <mxCell id="tHKBDyenzgohp8NIYTpj-156" value="19" style="text;html=1;align=center;verticalAlign=middle;resizable=0;points=[];autosize=1;strokeColor=none;fillColor=none;fontSize=7;rotation=0;labelBackgroundColor=none;" parent="1" vertex="1">
          <mxGeometry x="910" y="192" width="20" height="10" as="geometry" />
        </mxCell>
        <mxCell id="tHKBDyenzgohp8NIYTpj-157" value="20" style="text;html=1;align=center;verticalAlign=middle;resizable=0;points=[];autosize=1;strokeColor=none;fillColor=none;fontSize=7;rotation=0;labelBackgroundColor=none;" parent="1" vertex="1">
          <mxGeometry x="910" y="201" width="20" height="10" as="geometry" />
        </mxCell>
        <mxCell id="tHKBDyenzgohp8NIYTpj-158" value="21" style="text;html=1;align=center;verticalAlign=middle;resizable=0;points=[];autosize=1;strokeColor=none;fillColor=none;fontSize=7;rotation=0;labelBackgroundColor=none;" parent="1" vertex="1">
          <mxGeometry x="910" y="211" width="20" height="10" as="geometry" />
        </mxCell>
        <mxCell id="tHKBDyenzgohp8NIYTpj-159" value="22" style="text;html=1;align=center;verticalAlign=middle;resizable=0;points=[];autosize=1;strokeColor=none;fillColor=none;fontSize=7;rotation=0;labelBackgroundColor=none;" parent="1" vertex="1">
          <mxGeometry x="910" y="221" width="20" height="10" as="geometry" />
        </mxCell>
        <mxCell id="tHKBDyenzgohp8NIYTpj-161" value="12" style="text;html=1;align=center;verticalAlign=middle;resizable=0;points=[];autosize=1;strokeColor=none;fillColor=none;fontSize=7;rotation=0;labelBackgroundColor=none;" parent="1" vertex="1">
          <mxGeometry x="910" y="582" width="20" height="10" as="geometry" />
        </mxCell>
        <mxCell id="tHKBDyenzgohp8NIYTpj-162" value="25" style="text;html=1;align=center;verticalAlign=middle;resizable=0;points=[];autosize=1;strokeColor=none;fillColor=none;fontSize=7;rotation=0;labelBackgroundColor=none;" parent="1" vertex="1">
          <mxGeometry x="910" y="370" width="20" height="10" as="geometry" />
        </mxCell>
        <mxCell id="tHKBDyenzgohp8NIYTpj-163" value="26" style="text;html=1;align=center;verticalAlign=middle;resizable=0;points=[];autosize=1;strokeColor=none;fillColor=none;fontSize=7;rotation=0;labelBackgroundColor=none;" parent="1" vertex="1">
          <mxGeometry x="910" y="380" width="20" height="10" as="geometry" />
        </mxCell>
        <mxCell id="tHKBDyenzgohp8NIYTpj-164" value="27" style="text;html=1;align=center;verticalAlign=middle;resizable=0;points=[];autosize=1;strokeColor=none;fillColor=none;fontSize=7;rotation=0;labelBackgroundColor=none;" parent="1" vertex="1">
          <mxGeometry x="910" y="390" width="20" height="10" as="geometry" />
        </mxCell>
        <mxCell id="tHKBDyenzgohp8NIYTpj-165" value="28" style="text;html=1;align=center;verticalAlign=middle;resizable=0;points=[];autosize=1;strokeColor=none;fillColor=none;fontSize=7;rotation=0;labelBackgroundColor=none;" parent="1" vertex="1">
          <mxGeometry x="910" y="401" width="20" height="10" as="geometry" />
        </mxCell>
        <mxCell id="tHKBDyenzgohp8NIYTpj-166" value="29" style="text;html=1;align=center;verticalAlign=middle;resizable=0;points=[];autosize=1;strokeColor=none;fillColor=none;fontSize=7;rotation=0;labelBackgroundColor=none;" parent="1" vertex="1">
          <mxGeometry x="910" y="411" width="20" height="10" as="geometry" />
        </mxCell>
        <mxCell id="tHKBDyenzgohp8NIYTpj-167" value="30" style="text;html=1;align=center;verticalAlign=middle;resizable=0;points=[];autosize=1;strokeColor=none;fillColor=none;fontSize=7;rotation=0;labelBackgroundColor=none;" parent="1" vertex="1">
          <mxGeometry x="910" y="421" width="20" height="10" as="geometry" />
        </mxCell>
        <mxCell id="tHKBDyenzgohp8NIYTpj-168" value="31" style="text;html=1;align=center;verticalAlign=middle;resizable=0;points=[];autosize=1;strokeColor=none;fillColor=none;fontSize=7;rotation=0;labelBackgroundColor=none;" parent="1" vertex="1">
          <mxGeometry x="910" y="431" width="20" height="10" as="geometry" />
        </mxCell>
        <mxCell id="tHKBDyenzgohp8NIYTpj-169" value="32" style="text;html=1;align=center;verticalAlign=middle;resizable=0;points=[];autosize=1;strokeColor=none;fillColor=none;fontSize=7;rotation=0;labelBackgroundColor=none;" parent="1" vertex="1">
          <mxGeometry x="910" y="441" width="20" height="10" as="geometry" />
        </mxCell>
        <mxCell id="tHKBDyenzgohp8NIYTpj-170" value="33" style="text;html=1;align=center;verticalAlign=middle;resizable=0;points=[];autosize=1;strokeColor=none;fillColor=none;fontSize=7;rotation=0;labelBackgroundColor=none;" parent="1" vertex="1">
          <mxGeometry x="910" y="451" width="20" height="10" as="geometry" />
        </mxCell>
        <mxCell id="tHKBDyenzgohp8NIYTpj-171" value="34" style="text;html=1;align=center;verticalAlign=middle;resizable=0;points=[];autosize=1;strokeColor=none;fillColor=none;fontSize=7;rotation=0;labelBackgroundColor=none;" parent="1" vertex="1">
          <mxGeometry x="910" y="461" width="20" height="10" as="geometry" />
        </mxCell>
        <mxCell id="tHKBDyenzgohp8NIYTpj-172" value="35" style="text;html=1;align=center;verticalAlign=middle;resizable=0;points=[];autosize=1;strokeColor=none;fillColor=none;fontSize=7;rotation=0;labelBackgroundColor=none;" parent="1" vertex="1">
          <mxGeometry x="910" y="471" width="20" height="10" as="geometry" />
        </mxCell>
        <mxCell id="tHKBDyenzgohp8NIYTpj-173" value="36" style="text;html=1;align=center;verticalAlign=middle;resizable=0;points=[];autosize=1;strokeColor=none;fillColor=none;fontSize=7;rotation=0;labelBackgroundColor=none;" parent="1" vertex="1">
          <mxGeometry x="910" y="481" width="20" height="10" as="geometry" />
        </mxCell>
        <mxCell id="tHKBDyenzgohp8NIYTpj-174" value="37" style="text;html=1;align=center;verticalAlign=middle;resizable=0;points=[];autosize=1;strokeColor=none;fillColor=none;fontSize=7;rotation=0;labelBackgroundColor=none;" parent="1" vertex="1">
          <mxGeometry x="910" y="491" width="20" height="10" as="geometry" />
        </mxCell>
        <mxCell id="tHKBDyenzgohp8NIYTpj-175" value="38" style="text;html=1;align=center;verticalAlign=middle;resizable=0;points=[];autosize=1;strokeColor=none;fillColor=none;fontSize=7;rotation=0;labelBackgroundColor=none;" parent="1" vertex="1">
          <mxGeometry x="649" y="117" width="20" height="10" as="geometry" />
        </mxCell>
        <mxCell id="tHKBDyenzgohp8NIYTpj-176" value="39" style="text;html=1;align=center;verticalAlign=middle;resizable=0;points=[];autosize=1;strokeColor=none;fillColor=none;fontSize=7;rotation=0;labelBackgroundColor=none;" parent="1" vertex="1">
          <mxGeometry x="649" y="127" width="20" height="10" as="geometry" />
        </mxCell>
        <mxCell id="tHKBDyenzgohp8NIYTpj-177" value="40" style="text;html=1;align=center;verticalAlign=middle;resizable=0;points=[];autosize=1;strokeColor=none;fillColor=none;fontSize=7;rotation=0;labelBackgroundColor=none;" parent="1" vertex="1">
          <mxGeometry x="649" y="137" width="20" height="10" as="geometry" />
        </mxCell>
        <mxCell id="tHKBDyenzgohp8NIYTpj-178" value="41" style="text;html=1;align=center;verticalAlign=middle;resizable=0;points=[];autosize=1;strokeColor=none;fillColor=none;fontSize=7;rotation=0;labelBackgroundColor=none;" parent="1" vertex="1">
          <mxGeometry x="649" y="147" width="20" height="10" as="geometry" />
        </mxCell>
        <mxCell id="tHKBDyenzgohp8NIYTpj-179" value="42" style="text;html=1;align=center;verticalAlign=middle;resizable=0;points=[];autosize=1;strokeColor=none;fillColor=none;fontSize=7;rotation=0;labelBackgroundColor=none;" parent="1" vertex="1">
          <mxGeometry x="649" y="177" width="20" height="10" as="geometry" />
        </mxCell>
        <mxCell id="tHKBDyenzgohp8NIYTpj-180" value="43" style="text;html=1;align=center;verticalAlign=middle;resizable=0;points=[];autosize=1;strokeColor=none;fillColor=none;fontSize=7;rotation=0;labelBackgroundColor=none;" parent="1" vertex="1">
          <mxGeometry x="649" y="187" width="20" height="10" as="geometry" />
        </mxCell>
        <mxCell id="tHKBDyenzgohp8NIYTpj-181" value="44" style="text;html=1;align=center;verticalAlign=middle;resizable=0;points=[];autosize=1;strokeColor=none;fillColor=none;fontSize=7;rotation=0;labelBackgroundColor=none;" parent="1" vertex="1">
          <mxGeometry x="910" y="81" width="20" height="10" as="geometry" />
        </mxCell>
        <mxCell id="tHKBDyenzgohp8NIYTpj-182" value="45" style="text;html=1;align=center;verticalAlign=middle;resizable=0;points=[];autosize=1;strokeColor=none;fillColor=none;fontSize=7;rotation=0;labelBackgroundColor=none;" parent="1" vertex="1">
          <mxGeometry x="910" y="91" width="20" height="10" as="geometry" />
        </mxCell>
        <mxCell id="tHKBDyenzgohp8NIYTpj-183" value="46" style="text;html=1;align=center;verticalAlign=middle;resizable=0;points=[];autosize=1;strokeColor=none;fillColor=none;fontSize=7;rotation=0;labelBackgroundColor=none;" parent="1" vertex="1">
          <mxGeometry x="910" y="101" width="20" height="10" as="geometry" />
        </mxCell>
        <mxCell id="tHKBDyenzgohp8NIYTpj-184" value="48" style="text;html=1;align=center;verticalAlign=middle;resizable=0;points=[];autosize=1;strokeColor=none;fillColor=none;fontSize=7;rotation=0;labelBackgroundColor=none;" parent="1" vertex="1">
          <mxGeometry x="649" y="206" width="20" height="10" as="geometry" />
        </mxCell>
        <mxCell id="tHKBDyenzgohp8NIYTpj-185" value="49" style="text;html=1;align=center;verticalAlign=middle;resizable=0;points=[];autosize=1;strokeColor=none;fillColor=none;fontSize=7;rotation=0;labelBackgroundColor=none;" parent="1" vertex="1">
          <mxGeometry x="649" y="217" width="20" height="10" as="geometry" />
        </mxCell>
        <mxCell id="tHKBDyenzgohp8NIYTpj-186" value="50" style="text;html=1;align=center;verticalAlign=middle;resizable=0;points=[];autosize=1;strokeColor=none;fillColor=none;fontSize=7;rotation=0;labelBackgroundColor=none;" parent="1" vertex="1">
          <mxGeometry x="649" y="227" width="20" height="10" as="geometry" />
        </mxCell>
        <mxCell id="tHKBDyenzgohp8NIYTpj-187" value="51" style="text;html=1;align=center;verticalAlign=middle;resizable=0;points=[];autosize=1;strokeColor=none;fillColor=none;fontSize=7;rotation=0;labelBackgroundColor=none;" parent="1" vertex="1">
          <mxGeometry x="649" y="237" width="20" height="10" as="geometry" />
        </mxCell>
        <mxCell id="tHKBDyenzgohp8NIYTpj-188" value="52" style="text;html=1;align=center;verticalAlign=middle;resizable=0;points=[];autosize=1;strokeColor=none;fillColor=none;fontSize=7;rotation=0;labelBackgroundColor=none;" parent="1" vertex="1">
          <mxGeometry x="649" y="247" width="20" height="10" as="geometry" />
        </mxCell>
        <mxCell id="tHKBDyenzgohp8NIYTpj-189" value="53" style="text;html=1;align=center;verticalAlign=middle;resizable=0;points=[];autosize=1;strokeColor=none;fillColor=none;fontSize=7;rotation=0;labelBackgroundColor=none;" parent="1" vertex="1">
          <mxGeometry x="649" y="257" width="20" height="10" as="geometry" />
        </mxCell>
        <mxCell id="tHKBDyenzgohp8NIYTpj-190" value="54" style="text;html=1;align=center;verticalAlign=middle;resizable=0;points=[];autosize=1;strokeColor=none;fillColor=none;fontSize=7;rotation=0;labelBackgroundColor=none;" parent="1" vertex="1">
          <mxGeometry x="649" y="266" width="20" height="10" as="geometry" />
        </mxCell>
        <mxCell id="tHKBDyenzgohp8NIYTpj-191" value="55" style="text;html=1;align=center;verticalAlign=middle;resizable=0;points=[];autosize=1;strokeColor=none;fillColor=none;fontSize=7;rotation=0;labelBackgroundColor=none;" parent="1" vertex="1">
          <mxGeometry x="910" y="500" width="20" height="10" as="geometry" />
        </mxCell>
        <mxCell id="tHKBDyenzgohp8NIYTpj-192" value="56" style="text;html=1;align=center;verticalAlign=middle;resizable=0;points=[];autosize=1;strokeColor=none;fillColor=none;fontSize=7;rotation=0;labelBackgroundColor=none;" parent="1" vertex="1">
          <mxGeometry x="649" y="296" width="20" height="10" as="geometry" />
        </mxCell>
        <mxCell id="tHKBDyenzgohp8NIYTpj-193" value="57" style="text;html=1;align=center;verticalAlign=middle;resizable=0;points=[];autosize=1;strokeColor=none;fillColor=none;fontSize=7;rotation=0;labelBackgroundColor=none;" parent="1" vertex="1">
          <mxGeometry x="649" y="307" width="20" height="10" as="geometry" />
        </mxCell>
        <mxCell id="tHKBDyenzgohp8NIYTpj-194" value="58" style="text;html=1;align=center;verticalAlign=middle;resizable=0;points=[];autosize=1;strokeColor=none;fillColor=none;fontSize=7;rotation=0;labelBackgroundColor=none;" parent="1" vertex="1">
          <mxGeometry x="649" y="318" width="20" height="10" as="geometry" />
        </mxCell>
        <mxCell id="tHKBDyenzgohp8NIYTpj-195" value="59" style="text;html=1;align=center;verticalAlign=middle;resizable=0;points=[];autosize=1;strokeColor=none;fillColor=none;fontSize=7;rotation=0;labelBackgroundColor=none;" parent="1" vertex="1">
          <mxGeometry x="649" y="328" width="20" height="10" as="geometry" />
        </mxCell>
        <mxCell id="tHKBDyenzgohp8NIYTpj-196" value="60" style="text;html=1;align=center;verticalAlign=middle;resizable=0;points=[];autosize=1;strokeColor=none;fillColor=none;fontSize=7;rotation=0;labelBackgroundColor=none;" parent="1" vertex="1">
          <mxGeometry x="649" y="337" width="20" height="10" as="geometry" />
        </mxCell>
        <mxCell id="tHKBDyenzgohp8NIYTpj-197" value="61" style="text;html=1;align=center;verticalAlign=middle;resizable=0;points=[];autosize=1;strokeColor=none;fillColor=none;fontSize=7;rotation=0;labelBackgroundColor=none;" parent="1" vertex="1">
          <mxGeometry x="649" y="346" width="20" height="10" as="geometry" />
        </mxCell>
        <mxCell id="tHKBDyenzgohp8NIYTpj-198" value="62" style="text;html=1;align=center;verticalAlign=middle;resizable=0;points=[];autosize=1;strokeColor=none;fillColor=none;fontSize=7;rotation=0;labelBackgroundColor=none;" parent="1" vertex="1">
          <mxGeometry x="649" y="357" width="20" height="10" as="geometry" />
        </mxCell>
        <mxCell id="tHKBDyenzgohp8NIYTpj-199" value="63" style="text;html=1;align=center;verticalAlign=middle;resizable=0;points=[];autosize=1;strokeColor=none;fillColor=none;fontSize=7;rotation=0;labelBackgroundColor=none;" parent="1" vertex="1">
          <mxGeometry x="649" y="366" width="20" height="10" as="geometry" />
        </mxCell>
        <mxCell id="tHKBDyenzgohp8NIYTpj-200" value="64" style="text;html=1;align=center;verticalAlign=middle;resizable=0;points=[];autosize=1;strokeColor=none;fillColor=none;fontSize=7;rotation=0;labelBackgroundColor=none;" parent="1" vertex="1">
          <mxGeometry x="649" y="378" width="20" height="10" as="geometry" />
        </mxCell>
        <mxCell id="tHKBDyenzgohp8NIYTpj-201" value="65" style="text;html=1;align=center;verticalAlign=middle;resizable=0;points=[];autosize=1;strokeColor=none;fillColor=none;fontSize=7;rotation=0;labelBackgroundColor=none;" parent="1" vertex="1">
          <mxGeometry x="649" y="388" width="20" height="10" as="geometry" />
        </mxCell>
        <mxCell id="tHKBDyenzgohp8NIYTpj-202" value="66" style="text;html=1;align=center;verticalAlign=middle;resizable=0;points=[];autosize=1;strokeColor=none;fillColor=none;fontSize=7;rotation=0;labelBackgroundColor=none;" parent="1" vertex="1">
          <mxGeometry x="649" y="398" width="20" height="10" as="geometry" />
        </mxCell>
        <mxCell id="tHKBDyenzgohp8NIYTpj-203" value="67" style="text;html=1;align=center;verticalAlign=middle;resizable=0;points=[];autosize=1;strokeColor=none;fillColor=none;fontSize=7;rotation=0;labelBackgroundColor=none;" parent="1" vertex="1">
          <mxGeometry x="649" y="408" width="20" height="10" as="geometry" />
        </mxCell>
        <mxCell id="tHKBDyenzgohp8NIYTpj-205" value="68" style="text;html=1;align=center;verticalAlign=middle;resizable=0;points=[];autosize=1;strokeColor=none;fillColor=none;fontSize=7;rotation=0;labelBackgroundColor=none;" parent="1" vertex="1">
          <mxGeometry x="649" y="418" width="20" height="10" as="geometry" />
        </mxCell>
        <mxCell id="tHKBDyenzgohp8NIYTpj-206" value="69" style="text;html=1;align=center;verticalAlign=middle;resizable=0;points=[];autosize=1;strokeColor=none;fillColor=none;fontSize=7;rotation=0;labelBackgroundColor=none;" parent="1" vertex="1">
          <mxGeometry x="649" y="428" width="20" height="10" as="geometry" />
        </mxCell>
        <mxCell id="tHKBDyenzgohp8NIYTpj-208" value="70" style="text;html=1;align=center;verticalAlign=middle;resizable=0;points=[];autosize=1;strokeColor=none;fillColor=none;fontSize=7;rotation=0;labelBackgroundColor=none;" parent="1" vertex="1">
          <mxGeometry x="649" y="438" width="20" height="10" as="geometry" />
        </mxCell>
        <mxCell id="tHKBDyenzgohp8NIYTpj-209" value="72" style="text;html=1;align=center;verticalAlign=middle;resizable=0;points=[];autosize=1;strokeColor=none;fillColor=none;fontSize=7;rotation=0;labelBackgroundColor=none;" parent="1" vertex="1">
          <mxGeometry x="649" y="457" width="20" height="10" as="geometry" />
        </mxCell>
        <mxCell id="tHKBDyenzgohp8NIYTpj-210" value="71" style="text;html=1;align=center;verticalAlign=middle;resizable=0;points=[];autosize=1;strokeColor=none;fillColor=none;fontSize=7;rotation=0;labelBackgroundColor=none;" parent="1" vertex="1">
          <mxGeometry x="649" y="448" width="20" height="10" as="geometry" />
        </mxCell>
        <mxCell id="tHKBDyenzgohp8NIYTpj-211" value="73" style="text;html=1;align=center;verticalAlign=middle;resizable=0;points=[];autosize=1;strokeColor=none;fillColor=none;fontSize=7;rotation=0;labelBackgroundColor=none;" parent="1" vertex="1">
          <mxGeometry x="649" y="469" width="20" height="10" as="geometry" />
        </mxCell>
        <mxCell id="tHKBDyenzgohp8NIYTpj-212" value="74" style="text;html=1;align=center;verticalAlign=middle;resizable=0;points=[];autosize=1;strokeColor=none;fillColor=none;fontSize=7;rotation=0;labelBackgroundColor=none;" parent="1" vertex="1">
          <mxGeometry x="649" y="479" width="20" height="10" as="geometry" />
        </mxCell>
        <mxCell id="tHKBDyenzgohp8NIYTpj-213" value="75" style="text;html=1;align=center;verticalAlign=middle;resizable=0;points=[];autosize=1;strokeColor=none;fillColor=none;fontSize=7;rotation=0;labelBackgroundColor=none;" parent="1" vertex="1">
          <mxGeometry x="649" y="488" width="20" height="10" as="geometry" />
        </mxCell>
        <mxCell id="tHKBDyenzgohp8NIYTpj-214" value="76" style="text;html=1;align=center;verticalAlign=middle;resizable=0;points=[];autosize=1;strokeColor=none;fillColor=none;fontSize=7;rotation=0;labelBackgroundColor=none;" parent="1" vertex="1">
          <mxGeometry x="649" y="499" width="20" height="10" as="geometry" />
        </mxCell>
        <mxCell id="tHKBDyenzgohp8NIYTpj-215" value="77" style="text;html=1;align=center;verticalAlign=middle;resizable=0;points=[];autosize=1;strokeColor=none;fillColor=none;fontSize=7;rotation=0;labelBackgroundColor=none;" parent="1" vertex="1">
          <mxGeometry x="649" y="509" width="20" height="10" as="geometry" />
        </mxCell>
        <mxCell id="tHKBDyenzgohp8NIYTpj-216" value="78" style="text;html=1;align=center;verticalAlign=middle;resizable=0;points=[];autosize=1;strokeColor=none;fillColor=none;fontSize=7;rotation=0;labelBackgroundColor=none;" parent="1" vertex="1">
          <mxGeometry x="649" y="519" width="20" height="10" as="geometry" />
        </mxCell>
        <mxCell id="tHKBDyenzgohp8NIYTpj-217" value="79" style="text;html=1;align=center;verticalAlign=middle;resizable=0;points=[];autosize=1;strokeColor=none;fillColor=none;fontSize=7;rotation=0;labelBackgroundColor=none;" parent="1" vertex="1">
          <mxGeometry x="649" y="529" width="20" height="10" as="geometry" />
        </mxCell>
        <mxCell id="tHKBDyenzgohp8NIYTpj-218" value="80" style="text;html=1;align=center;verticalAlign=middle;resizable=0;points=[];autosize=1;strokeColor=none;fillColor=none;fontSize=7;rotation=0;labelBackgroundColor=none;" parent="1" vertex="1">
          <mxGeometry x="910" y="231" width="20" height="10" as="geometry" />
        </mxCell>
        <mxCell id="tHKBDyenzgohp8NIYTpj-219" value="81" style="text;html=1;align=center;verticalAlign=middle;resizable=0;points=[];autosize=1;strokeColor=none;fillColor=none;fontSize=7;rotation=0;labelBackgroundColor=none;" parent="1" vertex="1">
          <mxGeometry x="910" y="241" width="20" height="10" as="geometry" />
        </mxCell>
        <mxCell id="tHKBDyenzgohp8NIYTpj-220" value="82" style="text;html=1;align=center;verticalAlign=middle;resizable=0;points=[];autosize=1;strokeColor=none;fillColor=none;fontSize=7;rotation=0;labelBackgroundColor=none;" parent="1" vertex="1">
          <mxGeometry x="910" y="251" width="20" height="10" as="geometry" />
        </mxCell>
        <mxCell id="tHKBDyenzgohp8NIYTpj-221" value="83" style="text;html=1;align=center;verticalAlign=middle;resizable=0;points=[];autosize=1;strokeColor=none;fillColor=none;fontSize=7;rotation=0;labelBackgroundColor=none;" parent="1" vertex="1">
          <mxGeometry x="910" y="261" width="20" height="10" as="geometry" />
        </mxCell>
        <mxCell id="tHKBDyenzgohp8NIYTpj-222" value="84" style="text;html=1;align=center;verticalAlign=middle;resizable=0;points=[];autosize=1;strokeColor=none;fillColor=none;fontSize=7;rotation=0;labelBackgroundColor=none;" parent="1" vertex="1">
          <mxGeometry x="910" y="282" width="20" height="10" as="geometry" />
        </mxCell>
        <mxCell id="tHKBDyenzgohp8NIYTpj-223" value="85" style="text;html=1;align=center;verticalAlign=middle;resizable=0;points=[];autosize=1;strokeColor=none;fillColor=none;fontSize=7;rotation=0;labelBackgroundColor=none;" parent="1" vertex="1">
          <mxGeometry x="910" y="292" width="20" height="10" as="geometry" />
        </mxCell>
        <mxCell id="tHKBDyenzgohp8NIYTpj-224" value="86" style="text;html=1;align=center;verticalAlign=middle;resizable=0;points=[];autosize=1;strokeColor=none;fillColor=none;fontSize=7;rotation=0;labelBackgroundColor=none;" parent="1" vertex="1">
          <mxGeometry x="910" y="302" width="20" height="10" as="geometry" />
        </mxCell>
        <mxCell id="tHKBDyenzgohp8NIYTpj-225" value="87" style="text;html=1;align=center;verticalAlign=middle;resizable=0;points=[];autosize=1;strokeColor=none;fillColor=none;fontSize=7;rotation=0;labelBackgroundColor=none;" parent="1" vertex="1">
          <mxGeometry x="910" y="312" width="20" height="10" as="geometry" />
        </mxCell>
        <mxCell id="tHKBDyenzgohp8NIYTpj-226" value="88" style="text;html=1;align=center;verticalAlign=middle;resizable=0;points=[];autosize=1;strokeColor=none;fillColor=none;fontSize=7;rotation=0;labelBackgroundColor=none;" parent="1" vertex="1">
          <mxGeometry x="910" y="322" width="20" height="10" as="geometry" />
        </mxCell>
        <mxCell id="tHKBDyenzgohp8NIYTpj-227" value="89" style="text;html=1;align=center;verticalAlign=middle;resizable=0;points=[];autosize=1;strokeColor=none;fillColor=none;fontSize=7;rotation=0;labelBackgroundColor=none;" parent="1" vertex="1">
          <mxGeometry x="910" y="332" width="20" height="10" as="geometry" />
        </mxCell>
        <mxCell id="tHKBDyenzgohp8NIYTpj-228" value="90" style="text;html=1;align=center;verticalAlign=middle;resizable=0;points=[];autosize=1;strokeColor=none;fillColor=none;fontSize=7;rotation=0;labelBackgroundColor=none;" parent="1" vertex="1">
          <mxGeometry x="910" y="342" width="20" height="10" as="geometry" />
        </mxCell>
        <mxCell id="tHKBDyenzgohp8NIYTpj-229" value="47" style="text;html=1;align=center;verticalAlign=middle;resizable=0;points=[];autosize=1;strokeColor=none;fillColor=none;fontSize=7;rotation=0;labelBackgroundColor=none;" parent="1" vertex="1">
          <mxGeometry x="910" y="352" width="20" height="10" as="geometry" />
        </mxCell>
        <mxCell id="tHKBDyenzgohp8NIYTpj-230" value="24" style="text;html=1;align=center;verticalAlign=middle;resizable=0;points=[];autosize=1;strokeColor=none;fillColor=none;fontSize=7;rotation=0;labelBackgroundColor=none;" parent="1" vertex="1">
          <mxGeometry x="910" y="521" width="20" height="10" as="geometry" />
        </mxCell>
        <mxCell id="tHKBDyenzgohp8NIYTpj-231" value="91" style="text;html=1;align=center;verticalAlign=middle;resizable=0;points=[];autosize=1;strokeColor=none;fillColor=none;fontSize=7;rotation=0;labelBackgroundColor=none;" parent="1" vertex="1">
          <mxGeometry x="910" y="511" width="20" height="10" as="geometry" />
        </mxCell>
        <mxCell id="tHKBDyenzgohp8NIYTpj-232" value="1" style="text;html=1;align=center;verticalAlign=middle;resizable=0;points=[];autosize=1;strokeColor=none;fillColor=none;fontSize=7;rotation=0;" parent="1" vertex="1">
          <mxGeometry x="350" y="255.5" width="20" height="10" as="geometry" />
        </mxCell>
        <mxCell id="tHKBDyenzgohp8NIYTpj-233" value="2" style="text;html=1;align=center;verticalAlign=middle;resizable=0;points=[];autosize=1;strokeColor=none;fillColor=none;fontSize=7;rotation=0;" parent="1" vertex="1">
          <mxGeometry x="350" y="265.5" width="20" height="10" as="geometry" />
        </mxCell>
        <mxCell id="tHKBDyenzgohp8NIYTpj-234" value="3" style="text;html=1;align=center;verticalAlign=middle;resizable=0;points=[];autosize=1;strokeColor=none;fillColor=none;fontSize=7;rotation=0;" parent="1" vertex="1">
          <mxGeometry x="350" y="275.5" width="20" height="10" as="geometry" />
        </mxCell>
        <mxCell id="tHKBDyenzgohp8NIYTpj-252" value="1" style="text;html=1;align=center;verticalAlign=middle;resizable=0;points=[];autosize=1;strokeColor=none;fillColor=none;fontSize=7;rotation=0;" parent="1" vertex="1">
          <mxGeometry x="1150" y="175" width="20" height="10" as="geometry" />
        </mxCell>
        <mxCell id="tHKBDyenzgohp8NIYTpj-253" value="2" style="text;html=1;align=center;verticalAlign=middle;resizable=0;points=[];autosize=1;strokeColor=none;fillColor=none;fontSize=7;rotation=0;" parent="1" vertex="1">
          <mxGeometry x="1150" y="185" width="20" height="10" as="geometry" />
        </mxCell>
        <mxCell id="tHKBDyenzgohp8NIYTpj-254" value="3" style="text;html=1;align=center;verticalAlign=middle;resizable=0;points=[];autosize=1;strokeColor=none;fillColor=none;fontSize=7;rotation=0;" parent="1" vertex="1">
          <mxGeometry x="1150" y="195" width="20" height="10" as="geometry" />
        </mxCell>
        <mxCell id="tHKBDyenzgohp8NIYTpj-255" value="4" style="text;html=1;align=center;verticalAlign=middle;resizable=0;points=[];autosize=1;strokeColor=none;fillColor=none;fontSize=7;rotation=0;" parent="1" vertex="1">
          <mxGeometry x="1150" y="205" width="20" height="10" as="geometry" />
        </mxCell>
        <mxCell id="tHKBDyenzgohp8NIYTpj-256" value="1" style="text;html=1;align=center;verticalAlign=middle;resizable=0;points=[];autosize=1;strokeColor=none;fillColor=none;fontSize=7;rotation=0;" parent="1" vertex="1">
          <mxGeometry x="1150" y="263" width="20" height="10" as="geometry" />
        </mxCell>
        <mxCell id="tHKBDyenzgohp8NIYTpj-257" value="2" style="text;html=1;align=center;verticalAlign=middle;resizable=0;points=[];autosize=1;strokeColor=none;fillColor=none;fontSize=7;rotation=0;" parent="1" vertex="1">
          <mxGeometry x="1150" y="273" width="20" height="10" as="geometry" />
        </mxCell>
        <mxCell id="tHKBDyenzgohp8NIYTpj-258" value="3" style="text;html=1;align=center;verticalAlign=middle;resizable=0;points=[];autosize=1;strokeColor=none;fillColor=none;fontSize=7;rotation=0;" parent="1" vertex="1">
          <mxGeometry x="1150" y="283" width="20" height="10" as="geometry" />
        </mxCell>
        <mxCell id="tHKBDyenzgohp8NIYTpj-259" value="4" style="text;html=1;align=center;verticalAlign=middle;resizable=0;points=[];autosize=1;strokeColor=none;fillColor=none;fontSize=7;rotation=0;" parent="1" vertex="1">
          <mxGeometry x="1150" y="293" width="20" height="10" as="geometry" />
        </mxCell>
        <mxCell id="tHKBDyenzgohp8NIYTpj-260" value="1" style="text;html=1;align=center;verticalAlign=middle;resizable=0;points=[];autosize=1;strokeColor=none;fillColor=none;fontSize=7;rotation=0;" parent="1" vertex="1">
          <mxGeometry x="1150" y="350" width="20" height="10" as="geometry" />
        </mxCell>
        <mxCell id="tHKBDyenzgohp8NIYTpj-261" value="2" style="text;html=1;align=center;verticalAlign=middle;resizable=0;points=[];autosize=1;strokeColor=none;fillColor=none;fontSize=7;rotation=0;" parent="1" vertex="1">
          <mxGeometry x="1150" y="360" width="20" height="10" as="geometry" />
        </mxCell>
        <mxCell id="tHKBDyenzgohp8NIYTpj-262" value="3" style="text;html=1;align=center;verticalAlign=middle;resizable=0;points=[];autosize=1;strokeColor=none;fillColor=none;fontSize=7;rotation=0;" parent="1" vertex="1">
          <mxGeometry x="1150" y="370" width="20" height="10" as="geometry" />
        </mxCell>
        <mxCell id="tHKBDyenzgohp8NIYTpj-263" value="4" style="text;html=1;align=center;verticalAlign=middle;resizable=0;points=[];autosize=1;strokeColor=none;fillColor=none;fontSize=7;rotation=0;" parent="1" vertex="1">
          <mxGeometry x="1150" y="380" width="20" height="10" as="geometry" />
        </mxCell>
        <mxCell id="tHKBDyenzgohp8NIYTpj-265" value="1" style="text;html=1;align=center;verticalAlign=middle;resizable=0;points=[];autosize=1;strokeColor=none;fillColor=none;fontSize=7;rotation=0;" parent="1" vertex="1">
          <mxGeometry x="630" y="827" width="20" height="10" as="geometry" />
        </mxCell>
        <mxCell id="tHKBDyenzgohp8NIYTpj-266" value="2" style="text;html=1;align=center;verticalAlign=middle;resizable=0;points=[];autosize=1;strokeColor=none;fillColor=none;fontSize=7;rotation=0;" parent="1" vertex="1">
          <mxGeometry x="630" y="837" width="20" height="10" as="geometry" />
        </mxCell>
        <mxCell id="tHKBDyenzgohp8NIYTpj-267" value="3" style="text;html=1;align=center;verticalAlign=middle;resizable=0;points=[];autosize=1;strokeColor=none;fillColor=none;fontSize=7;rotation=0;" parent="1" vertex="1">
          <mxGeometry x="630" y="847" width="20" height="10" as="geometry" />
        </mxCell>
        <mxCell id="tHKBDyenzgohp8NIYTpj-268" value="4" style="text;html=1;align=center;verticalAlign=middle;resizable=0;points=[];autosize=1;strokeColor=none;fillColor=none;fontSize=7;rotation=0;" parent="1" vertex="1">
          <mxGeometry x="630" y="857" width="20" height="10" as="geometry" />
        </mxCell>
        <mxCell id="tHKBDyenzgohp8NIYTpj-269" value="5" style="text;html=1;align=center;verticalAlign=middle;resizable=0;points=[];autosize=1;strokeColor=none;fillColor=none;fontSize=7;rotation=0;" parent="1" vertex="1">
          <mxGeometry x="630" y="866" width="20" height="10" as="geometry" />
        </mxCell>
        <mxCell id="tHKBDyenzgohp8NIYTpj-270" value="6" style="text;html=1;align=center;verticalAlign=middle;resizable=0;points=[];autosize=1;strokeColor=none;fillColor=none;fontSize=7;rotation=0;" parent="1" vertex="1">
          <mxGeometry x="630" y="876" width="20" height="10" as="geometry" />
        </mxCell>
        <mxCell id="tHKBDyenzgohp8NIYTpj-271" value="7" style="text;html=1;align=center;verticalAlign=middle;resizable=0;points=[];autosize=1;strokeColor=none;fillColor=none;fontSize=7;rotation=0;" parent="1" vertex="1">
          <mxGeometry x="630" y="886" width="20" height="10" as="geometry" />
        </mxCell>
        <mxCell id="tHKBDyenzgohp8NIYTpj-272" value="8" style="text;html=1;align=center;verticalAlign=middle;resizable=0;points=[];autosize=1;strokeColor=none;fillColor=none;fontSize=7;rotation=0;" parent="1" vertex="1">
          <mxGeometry x="630" y="896" width="20" height="10" as="geometry" />
        </mxCell>
        <mxCell id="tHKBDyenzgohp8NIYTpj-273" value="9" style="text;html=1;align=center;verticalAlign=middle;resizable=0;points=[];autosize=1;strokeColor=none;fillColor=none;fontSize=7;rotation=0;" parent="1" vertex="1">
          <mxGeometry x="761" y="826" width="20" height="10" as="geometry" />
        </mxCell>
        <mxCell id="tHKBDyenzgohp8NIYTpj-274" value="10" style="text;html=1;align=center;verticalAlign=middle;resizable=0;points=[];autosize=1;strokeColor=none;fillColor=none;fontSize=7;rotation=0;" parent="1" vertex="1">
          <mxGeometry x="761" y="836" width="20" height="10" as="geometry" />
        </mxCell>
        <mxCell id="tHKBDyenzgohp8NIYTpj-275" value="11" style="text;html=1;align=center;verticalAlign=middle;resizable=0;points=[];autosize=1;strokeColor=none;fillColor=none;fontSize=7;rotation=0;" parent="1" vertex="1">
          <mxGeometry x="761" y="846" width="20" height="10" as="geometry" />
        </mxCell>
        <mxCell id="tHKBDyenzgohp8NIYTpj-276" value="12" style="text;html=1;align=center;verticalAlign=middle;resizable=0;points=[];autosize=1;strokeColor=none;fillColor=none;fontSize=7;rotation=0;" parent="1" vertex="1">
          <mxGeometry x="761" y="856" width="20" height="10" as="geometry" />
        </mxCell>
        <mxCell id="tHKBDyenzgohp8NIYTpj-277" value="13" style="text;html=1;align=center;verticalAlign=middle;resizable=0;points=[];autosize=1;strokeColor=none;fillColor=none;fontSize=7;rotation=0;" parent="1" vertex="1">
          <mxGeometry x="761" y="865" width="20" height="10" as="geometry" />
        </mxCell>
        <mxCell id="tHKBDyenzgohp8NIYTpj-278" value="14" style="text;html=1;align=center;verticalAlign=middle;resizable=0;points=[];autosize=1;strokeColor=none;fillColor=none;fontSize=7;rotation=0;" parent="1" vertex="1">
          <mxGeometry x="761" y="876" width="20" height="10" as="geometry" />
        </mxCell>
        <mxCell id="tHKBDyenzgohp8NIYTpj-279" value="15" style="text;html=1;align=center;verticalAlign=middle;resizable=0;points=[];autosize=1;strokeColor=none;fillColor=none;fontSize=7;rotation=0;" parent="1" vertex="1">
          <mxGeometry x="761" y="886" width="20" height="10" as="geometry" />
        </mxCell>
        <mxCell id="tHKBDyenzgohp8NIYTpj-280" value="16" style="text;html=1;align=center;verticalAlign=middle;resizable=0;points=[];autosize=1;strokeColor=none;fillColor=none;fontSize=7;rotation=0;" parent="1" vertex="1">
          <mxGeometry x="761" y="896" width="20" height="10" as="geometry" />
        </mxCell>
        <mxCell id="Lm2FM2jUZa5uT3TC3Qp_-17" value="" style="endArrow=none;html=1;rounded=0;" parent="1" edge="1" target="zlBBdxe0bt9fsabpmSAy-131">
          <mxGeometry width="50" height="50" relative="1" as="geometry">
            <mxPoint x="1125" y="640" as="sourcePoint" />
            <mxPoint x="630" y="110" as="targetPoint" />
            <Array as="points">
              <mxPoint x="640" y="640" />
              <mxPoint x="640" y="106" />
            </Array>
          </mxGeometry>
        </mxCell>
        <mxCell id="Lm2FM2jUZa5uT3TC3Qp_-18" value="" style="endArrow=none;html=1;rounded=0;" parent="1" target="zlBBdxe0bt9fsabpmSAy-132" edge="1">
          <mxGeometry width="50" height="50" relative="1" as="geometry">
            <mxPoint x="1040" y="680" as="sourcePoint" />
            <mxPoint x="651" y="115.13690476190482" as="targetPoint" />
            <Array as="points">
              <mxPoint x="620" y="680" />
              <mxPoint x="620" y="115" />
            </Array>
          </mxGeometry>
        </mxCell>
        <mxCell id="Lm2FM2jUZa5uT3TC3Qp_-30" value="23" style="text;html=1;align=center;verticalAlign=middle;resizable=0;points=[];autosize=1;strokeColor=none;fillColor=none;fontSize=7;rotation=0;labelBackgroundColor=none;" parent="1" vertex="1">
          <mxGeometry x="649" y="276" width="20" height="10" as="geometry" />
        </mxCell>
        <mxCell id="Lm2FM2jUZa5uT3TC3Qp_-31" value="64" style="text;html=1;align=center;verticalAlign=middle;resizable=0;points=[];autosize=1;strokeColor=none;fillColor=none;fontSize=7;rotation=0;labelBackgroundColor=none;" parent="1" vertex="1">
          <mxGeometry x="649" y="378" width="20" height="10" as="geometry" />
        </mxCell>
        <mxCell id="Lm2FM2jUZa5uT3TC3Qp_-32" value="38" style="text;html=1;align=center;verticalAlign=middle;resizable=0;points=[];autosize=1;strokeColor=none;fillColor=none;fontSize=7;rotation=0;labelBackgroundColor=none;" parent="1" vertex="1">
          <mxGeometry x="649" y="117" width="20" height="10" as="geometry" />
        </mxCell>
        <mxCell id="Lm2FM2jUZa5uT3TC3Qp_-34" value="" style="rounded=0;whiteSpace=wrap;html=1;labelBackgroundColor=none;fontColor=#FF0000;strokeWidth=1;" parent="1" vertex="1">
          <mxGeometry x="725" y="55" width="130" height="555" as="geometry" />
        </mxCell>
        <mxCell id="Lm2FM2jUZa5uT3TC3Qp_-35" value="" style="rounded=0;whiteSpace=wrap;html=1;labelBackgroundColor=none;fontColor=#FF0000;strokeWidth=1;" parent="1" vertex="1">
          <mxGeometry x="1195" y="169" width="60" height="60" as="geometry" />
        </mxCell>
        <mxCell id="Lm2FM2jUZa5uT3TC3Qp_-36" value="" style="rounded=0;whiteSpace=wrap;html=1;labelBackgroundColor=none;fontColor=#FF0000;strokeWidth=1;" parent="1" vertex="1">
          <mxGeometry x="1195" y="257" width="60" height="60" as="geometry" />
        </mxCell>
        <mxCell id="Lm2FM2jUZa5uT3TC3Qp_-37" value="" style="rounded=0;whiteSpace=wrap;html=1;labelBackgroundColor=none;fontColor=#FF0000;strokeWidth=1;" parent="1" vertex="1">
          <mxGeometry x="1195" y="345" width="60" height="60" as="geometry" />
        </mxCell>
        <mxCell id="Lm2FM2jUZa5uT3TC3Qp_-38" value="" style="rounded=0;whiteSpace=wrap;html=1;labelBackgroundColor=none;fontColor=#FF0000;strokeWidth=1;" parent="1" vertex="1">
          <mxGeometry x="676" y="810" width="58" height="120" as="geometry" />
        </mxCell>
        <mxCell id="Lm2FM2jUZa5uT3TC3Qp_-43" value="" style="rounded=0;whiteSpace=wrap;html=1;labelBackgroundColor=none;fontColor=#FF0000;strokeWidth=1;" parent="1" vertex="1">
          <mxGeometry x="280.5" y="249.5" width="49" height="60" as="geometry" />
        </mxCell>
        <mxCell id="7_RkRbMJjqPYAQ_UPjRA-6" value="" style="endArrow=none;html=1;rounded=0;entryX=0;entryY=0.5;entryDx=0;entryDy=0;" parent="1" source="zlBBdxe0bt9fsabpmSAy-321" target="tHKBDyenzgohp8NIYTpj-112" edge="1">
          <mxGeometry width="50" height="50" relative="1" as="geometry">
            <mxPoint x="919" y="911" as="sourcePoint" />
            <mxPoint x="969" y="861" as="targetPoint" />
            <Array as="points">
              <mxPoint x="869" y="895" />
              <mxPoint x="869" y="925" />
            </Array>
          </mxGeometry>
        </mxCell>
        <mxCell id="BFjY9OM7i1V69m8IbPRI-3" value="&lt;span style=&quot;font-size: 12px;&quot;&gt;ACS712T&lt;/span&gt;" style="text;html=1;align=center;verticalAlign=middle;resizable=0;points=[];autosize=1;strokeColor=none;fillColor=none;fontSize=11;fontStyle=2" parent="1" vertex="1">
          <mxGeometry x="300" y="378" width="70" height="20" as="geometry" />
        </mxCell>
        <mxCell id="BFjY9OM7i1V69m8IbPRI-4" value="" style="rounded=0;whiteSpace=wrap;html=1;fontSize=8;fontColor=none;strokeColor=#000000;" parent="1" vertex="1">
          <mxGeometry x="260" y="398" width="100" height="60" as="geometry" />
        </mxCell>
        <mxCell id="BFjY9OM7i1V69m8IbPRI-5" value="VCC" style="text;html=1;strokeColor=none;fillColor=none;align=right;verticalAlign=middle;whiteSpace=wrap;rounded=0;rotation=0;fontSize=8;" parent="1" vertex="1">
          <mxGeometry x="310" y="408" width="50" height="10" as="geometry" />
        </mxCell>
        <mxCell id="BFjY9OM7i1V69m8IbPRI-6" value="OUT" style="text;html=1;strokeColor=none;fillColor=none;align=right;verticalAlign=middle;whiteSpace=wrap;rounded=0;rotation=0;fontSize=8;" parent="1" vertex="1">
          <mxGeometry x="310" y="418" width="50" height="10" as="geometry" />
        </mxCell>
        <mxCell id="BFjY9OM7i1V69m8IbPRI-7" value="GND" style="text;html=1;strokeColor=none;fillColor=none;align=right;verticalAlign=middle;whiteSpace=wrap;rounded=0;rotation=0;fontSize=8;" parent="1" vertex="1">
          <mxGeometry x="310" y="428" width="50" height="10" as="geometry" />
        </mxCell>
        <mxCell id="BFjY9OM7i1V69m8IbPRI-8" value="&lt;font style=&quot;font-size: 12px;&quot;&gt;&lt;i style=&quot;font-size: 12px;&quot;&gt;DD7&lt;/i&gt;&lt;/font&gt;" style="text;html=1;align=center;verticalAlign=middle;resizable=0;points=[];autosize=1;strokeColor=none;fillColor=none;fontSize=12;strokeWidth=1;" parent="1" vertex="1">
          <mxGeometry x="260" y="378" width="40" height="20" as="geometry" />
        </mxCell>
        <mxCell id="BFjY9OM7i1V69m8IbPRI-9" value="1" style="text;html=1;align=center;verticalAlign=middle;resizable=0;points=[];autosize=1;strokeColor=none;fillColor=none;fontSize=7;rotation=0;" parent="1" vertex="1">
          <mxGeometry x="355" y="404" width="20" height="10" as="geometry" />
        </mxCell>
        <mxCell id="BFjY9OM7i1V69m8IbPRI-10" value="2" style="text;html=1;align=center;verticalAlign=middle;resizable=0;points=[];autosize=1;strokeColor=none;fillColor=none;fontSize=7;rotation=0;" parent="1" vertex="1">
          <mxGeometry x="355" y="414" width="20" height="10" as="geometry" />
        </mxCell>
        <mxCell id="BFjY9OM7i1V69m8IbPRI-11" value="3" style="text;html=1;align=center;verticalAlign=middle;resizable=0;points=[];autosize=1;strokeColor=none;fillColor=none;fontSize=7;rotation=0;" parent="1" vertex="1">
          <mxGeometry x="355" y="424" width="20" height="10" as="geometry" />
        </mxCell>
        <mxCell id="BFjY9OM7i1V69m8IbPRI-12" value="" style="rounded=0;whiteSpace=wrap;html=1;labelBackgroundColor=none;fontColor=#FF0000;strokeWidth=1;" parent="1" vertex="1">
          <mxGeometry x="285.5" y="398" width="49" height="60" as="geometry" />
        </mxCell>
        <mxCell id="BFjY9OM7i1V69m8IbPRI-14" value="" style="endArrow=none;html=1;rounded=0;exitX=1;exitY=0.5;exitDx=0;exitDy=0;entryX=0;entryY=0.5;entryDx=0;entryDy=0;" parent="1" source="zlBBdxe0bt9fsabpmSAy-454" target="zlBBdxe0bt9fsabpmSAy-95" edge="1">
          <mxGeometry width="50" height="50" relative="1" as="geometry">
            <mxPoint x="385" y="280" as="sourcePoint" />
            <mxPoint x="635" y="290" as="targetPoint" />
          </mxGeometry>
        </mxCell>
        <mxCell id="BFjY9OM7i1V69m8IbPRI-15" value="" style="endArrow=none;html=1;rounded=0;exitX=1;exitY=0.5;exitDx=0;exitDy=0;entryX=0;entryY=0.5;entryDx=0;entryDy=0;" parent="1" source="BFjY9OM7i1V69m8IbPRI-6" target="zlBBdxe0bt9fsabpmSAy-96" edge="1">
          <mxGeometry width="50" height="50" relative="1" as="geometry">
            <mxPoint x="385" y="400" as="sourcePoint" />
            <mxPoint x="605" y="300" as="targetPoint" />
            <Array as="points">
              <mxPoint x="630" y="423" />
              <mxPoint x="630" y="285" />
            </Array>
          </mxGeometry>
        </mxCell>
        <mxCell id="BFjY9OM7i1V69m8IbPRI-16" value="" style="endArrow=none;html=1;rounded=0;" parent="1" edge="1" target="zlBBdxe0bt9fsabpmSAy-274" source="zlBBdxe0bt9fsabpmSAy-25">
          <mxGeometry width="50" height="50" relative="1" as="geometry">
            <mxPoint x="935" y="250" as="sourcePoint" />
            <mxPoint x="1145" y="190" as="targetPoint" />
            <Array as="points">
              <mxPoint x="1005" y="250" />
              <mxPoint x="1005" y="194" />
            </Array>
          </mxGeometry>
        </mxCell>
        <mxCell id="BFjY9OM7i1V69m8IbPRI-17" value="" style="endArrow=none;html=1;rounded=0;" parent="1" edge="1" target="zlBBdxe0bt9fsabpmSAy-275" source="zlBBdxe0bt9fsabpmSAy-24">
          <mxGeometry width="50" height="50" relative="1" as="geometry">
            <mxPoint x="935" y="240" as="sourcePoint" />
            <mxPoint x="1145" y="200" as="targetPoint" />
            <Array as="points">
              <mxPoint x="1015" y="240" />
              <mxPoint x="1015" y="204" />
            </Array>
          </mxGeometry>
        </mxCell>
        <mxCell id="BFjY9OM7i1V69m8IbPRI-18" value="" style="endArrow=none;html=1;rounded=0;" parent="1" edge="1" target="zlBBdxe0bt9fsabpmSAy-282" source="zlBBdxe0bt9fsabpmSAy-38">
          <mxGeometry width="50" height="50" relative="1" as="geometry">
            <mxPoint x="935" y="331.02564102564105" as="sourcePoint" />
            <mxPoint x="1145" y="280" as="targetPoint" />
            <Array as="points">
              <mxPoint x="1005" y="330" />
              <mxPoint x="1005" y="282" />
            </Array>
          </mxGeometry>
        </mxCell>
        <mxCell id="BFjY9OM7i1V69m8IbPRI-19" value="" style="endArrow=none;html=1;rounded=0;" parent="1" edge="1" target="zlBBdxe0bt9fsabpmSAy-283" source="zlBBdxe0bt9fsabpmSAy-39">
          <mxGeometry width="50" height="50" relative="1" as="geometry">
            <mxPoint x="935" y="340" as="sourcePoint" />
            <mxPoint x="1145" y="290" as="targetPoint" />
            <Array as="points">
              <mxPoint x="1015" y="340" />
              <mxPoint x="1015" y="292" />
            </Array>
          </mxGeometry>
        </mxCell>
        <mxCell id="BFjY9OM7i1V69m8IbPRI-20" value="" style="endArrow=none;html=1;rounded=0;" parent="1" edge="1" target="zlBBdxe0bt9fsabpmSAy-290" source="zlBBdxe0bt9fsabpmSAy-40">
          <mxGeometry width="50" height="50" relative="1" as="geometry">
            <mxPoint x="935" y="350" as="sourcePoint" />
            <mxPoint x="1145" y="370" as="targetPoint" />
            <Array as="points">
              <mxPoint x="1015" y="350" />
              <mxPoint x="1015" y="370" />
            </Array>
          </mxGeometry>
        </mxCell>
        <mxCell id="BFjY9OM7i1V69m8IbPRI-21" value="" style="endArrow=none;html=1;rounded=0;" parent="1" edge="1">
          <mxGeometry width="50" height="50" relative="1" as="geometry">
            <mxPoint x="915" y="361" as="sourcePoint" />
            <mxPoint x="1165" y="381" as="targetPoint" />
            <Array as="points">
              <mxPoint x="1005" y="361" />
              <mxPoint x="1005" y="381" />
            </Array>
          </mxGeometry>
        </mxCell>
        <mxCell id="BFjY9OM7i1V69m8IbPRI-22" value="" style="endArrow=none;html=1;rounded=0;" parent="1" edge="1" source="tHKBDyenzgohp8NIYTpj-84">
          <mxGeometry width="50" height="50" relative="1" as="geometry">
            <mxPoint x="485" y="837" as="sourcePoint" />
            <mxPoint x="645" y="837" as="targetPoint" />
            <Array as="points">
              <mxPoint x="605" y="507" />
              <mxPoint x="605" y="837" />
            </Array>
          </mxGeometry>
        </mxCell>
        <mxCell id="BFjY9OM7i1V69m8IbPRI-23" value="" style="endArrow=none;html=1;rounded=0;" parent="1" edge="1" source="tHKBDyenzgohp8NIYTpj-83">
          <mxGeometry width="50" height="50" relative="1" as="geometry">
            <mxPoint x="485" y="856.44" as="sourcePoint" />
            <mxPoint x="645" y="856.44" as="targetPoint" />
            <Array as="points">
              <mxPoint x="585" y="497" />
              <mxPoint x="585" y="856" />
            </Array>
          </mxGeometry>
        </mxCell>
        <mxCell id="BFjY9OM7i1V69m8IbPRI-24" value="" style="endArrow=none;html=1;rounded=0;" parent="1" edge="1" source="zlBBdxe0bt9fsabpmSAy-170">
          <mxGeometry width="50" height="50" relative="1" as="geometry">
            <mxPoint x="484" y="846" as="sourcePoint" />
            <mxPoint x="644" y="846" as="targetPoint" />
            <Array as="points">
              <mxPoint x="965" y="500" />
              <mxPoint x="965" y="690" />
              <mxPoint x="595" y="690" />
              <mxPoint x="595" y="846" />
            </Array>
          </mxGeometry>
        </mxCell>
        <mxCell id="BFjY9OM7i1V69m8IbPRI-25" value="" style="endArrow=none;html=1;rounded=0;" parent="1" edge="1" source="zlBBdxe0bt9fsabpmSAy-167">
          <mxGeometry width="50" height="50" relative="1" as="geometry">
            <mxPoint x="485" y="865.44" as="sourcePoint" />
            <mxPoint x="645" y="865.44" as="targetPoint" />
            <Array as="points">
              <mxPoint x="975" y="470" />
              <mxPoint x="975" y="700" />
              <mxPoint x="575" y="700" />
              <mxPoint x="575" y="865" />
            </Array>
          </mxGeometry>
        </mxCell>
        <mxCell id="BFjY9OM7i1V69m8IbPRI-26" value="" style="endArrow=none;html=1;rounded=0;" parent="1" edge="1" source="zlBBdxe0bt9fsabpmSAy-23">
          <mxGeometry width="50" height="50" relative="1" as="geometry">
            <mxPoint x="485" y="876" as="sourcePoint" />
            <mxPoint x="645" y="876" as="targetPoint" />
            <Array as="points">
              <mxPoint x="985" y="230" />
              <mxPoint x="985" y="710" />
              <mxPoint x="565" y="710" />
              <mxPoint x="565" y="876" />
            </Array>
          </mxGeometry>
        </mxCell>
        <mxCell id="BFjY9OM7i1V69m8IbPRI-27" value="" style="endArrow=none;html=1;rounded=0;" parent="1" edge="1" source="zlBBdxe0bt9fsabpmSAy-22">
          <mxGeometry width="50" height="50" relative="1" as="geometry">
            <mxPoint x="485" y="886.0000000000002" as="sourcePoint" />
            <mxPoint x="645" y="886.0000000000002" as="targetPoint" />
            <Array as="points">
              <mxPoint x="995" y="220" />
              <mxPoint x="995" y="720" />
              <mxPoint x="555" y="720" />
              <mxPoint x="555" y="886" />
            </Array>
          </mxGeometry>
        </mxCell>
        <mxCell id="BFjY9OM7i1V69m8IbPRI-28" value="" style="endArrow=none;html=1;rounded=0;" parent="1" edge="1" source="zlBBdxe0bt9fsabpmSAy-169">
          <mxGeometry width="50" height="50" relative="1" as="geometry">
            <mxPoint x="485" y="896.0000000000002" as="sourcePoint" />
            <mxPoint x="645" y="896.0000000000002" as="targetPoint" />
            <Array as="points">
              <mxPoint x="1005" y="490" />
              <mxPoint x="1005" y="730" />
              <mxPoint x="545" y="730" />
              <mxPoint x="545" y="896" />
            </Array>
          </mxGeometry>
        </mxCell>
        <mxCell id="agSPJJtHKSeSR5ndo58b-2" value="" style="endArrow=none;html=1;rounded=0;" edge="1" parent="1" target="zlBBdxe0bt9fsabpmSAy-273">
          <mxGeometry width="50" height="50" relative="1" as="geometry">
            <mxPoint x="1125" y="184" as="sourcePoint" />
            <mxPoint x="1115" y="180" as="targetPoint" />
          </mxGeometry>
        </mxCell>
        <mxCell id="agSPJJtHKSeSR5ndo58b-3" value="" style="endArrow=none;html=1;rounded=0;" edge="1" parent="1">
          <mxGeometry width="50" height="50" relative="1" as="geometry">
            <mxPoint x="1125" y="1031.142857142857" as="sourcePoint" />
            <mxPoint x="1125" y="184" as="targetPoint" />
          </mxGeometry>
        </mxCell>
        <mxCell id="agSPJJtHKSeSR5ndo58b-4" value="" style="endArrow=none;html=1;rounded=0;" edge="1" parent="1" target="zlBBdxe0bt9fsabpmSAy-281">
          <mxGeometry width="50" height="50" relative="1" as="geometry">
            <mxPoint x="1125" y="272" as="sourcePoint" />
            <mxPoint x="1165" y="270" as="targetPoint" />
          </mxGeometry>
        </mxCell>
        <mxCell id="agSPJJtHKSeSR5ndo58b-5" value="" style="ellipse;whiteSpace=wrap;html=1;fillColor=#000000;" vertex="1" parent="1">
          <mxGeometry x="1123" y="270" width="4" height="4" as="geometry" />
        </mxCell>
        <mxCell id="agSPJJtHKSeSR5ndo58b-6" value="" style="endArrow=none;html=1;rounded=0;" edge="1" parent="1" target="zlBBdxe0bt9fsabpmSAy-289">
          <mxGeometry width="50" height="50" relative="1" as="geometry">
            <mxPoint x="1125" y="360" as="sourcePoint" />
            <mxPoint x="1155" y="310" as="targetPoint" />
          </mxGeometry>
        </mxCell>
        <mxCell id="agSPJJtHKSeSR5ndo58b-7" value="" style="ellipse;whiteSpace=wrap;html=1;fillColor=#000000;" vertex="1" parent="1">
          <mxGeometry x="1123" y="358" width="4" height="4" as="geometry" />
        </mxCell>
        <mxCell id="agSPJJtHKSeSR5ndo58b-10" value="" style="endArrow=none;html=1;rounded=0;" edge="1" parent="1" target="zlBBdxe0bt9fsabpmSAy-149">
          <mxGeometry width="50" height="50" relative="1" as="geometry">
            <mxPoint x="940" y="640" as="sourcePoint" />
            <mxPoint x="940" y="600" as="targetPoint" />
            <Array as="points">
              <mxPoint x="940" y="592" />
            </Array>
          </mxGeometry>
        </mxCell>
        <mxCell id="agSPJJtHKSeSR5ndo58b-11" value="" style="ellipse;whiteSpace=wrap;html=1;fillColor=#000000;" vertex="1" parent="1">
          <mxGeometry x="938" y="600" width="4" height="4" as="geometry" />
        </mxCell>
        <mxCell id="agSPJJtHKSeSR5ndo58b-12" value="" style="endArrow=none;html=1;rounded=0;entryX=0;entryY=0.5;entryDx=0;entryDy=0;" edge="1" parent="1" source="zlBBdxe0bt9fsabpmSAy-177" target="agSPJJtHKSeSR5ndo58b-11">
          <mxGeometry width="50" height="50" relative="1" as="geometry">
            <mxPoint x="920" y="610" as="sourcePoint" />
            <mxPoint x="970" y="560" as="targetPoint" />
          </mxGeometry>
        </mxCell>
        <mxCell id="agSPJJtHKSeSR5ndo58b-13" value="" style="ellipse;whiteSpace=wrap;html=1;fillColor=#000000;" vertex="1" parent="1">
          <mxGeometry x="1123" y="638" width="4" height="4" as="geometry" />
        </mxCell>
        <mxCell id="agSPJJtHKSeSR5ndo58b-14" value="" style="ellipse;whiteSpace=wrap;html=1;fillColor=#000000;" vertex="1" parent="1">
          <mxGeometry x="638" y="411" width="4" height="4" as="geometry" />
        </mxCell>
        <mxCell id="agSPJJtHKSeSR5ndo58b-15" value="" style="ellipse;whiteSpace=wrap;html=1;fillColor=#000000;" vertex="1" parent="1">
          <mxGeometry x="638" y="263" width="4" height="4" as="geometry" />
        </mxCell>
        <mxCell id="agSPJJtHKSeSR5ndo58b-16" value="" style="endArrow=none;html=1;rounded=0;entryX=0;entryY=0.5;entryDx=0;entryDy=0;" edge="1" parent="1" source="zlBBdxe0bt9fsabpmSAy-452" target="agSPJJtHKSeSR5ndo58b-15">
          <mxGeometry width="50" height="50" relative="1" as="geometry">
            <mxPoint x="355" y="264.5403225806452" as="sourcePoint" />
            <mxPoint x="630" y="260" as="targetPoint" />
          </mxGeometry>
        </mxCell>
        <mxCell id="agSPJJtHKSeSR5ndo58b-17" value="" style="endArrow=none;html=1;rounded=0;entryX=0;entryY=0.5;entryDx=0;entryDy=0;" edge="1" parent="1" source="BFjY9OM7i1V69m8IbPRI-5" target="agSPJJtHKSeSR5ndo58b-14">
          <mxGeometry width="50" height="50" relative="1" as="geometry">
            <mxPoint x="360" y="412.77032258064514" as="sourcePoint" />
            <mxPoint x="620" y="400" as="targetPoint" />
          </mxGeometry>
        </mxCell>
        <mxCell id="agSPJJtHKSeSR5ndo58b-18" value="" style="endArrow=none;html=1;rounded=0;entryX=0.5;entryY=1;entryDx=0;entryDy=0;" edge="1" parent="1" source="zlBBdxe0bt9fsabpmSAy-316" target="agSPJJtHKSeSR5ndo58b-27">
          <mxGeometry width="50" height="50" relative="1" as="geometry">
            <mxPoint x="810" y="840" as="sourcePoint" />
            <mxPoint x="820" y="740" as="targetPoint" />
            <Array as="points">
              <mxPoint x="783" y="845" />
            </Array>
          </mxGeometry>
        </mxCell>
        <mxCell id="agSPJJtHKSeSR5ndo58b-27" value="" style="ellipse;whiteSpace=wrap;html=1;fillColor=#000000;" vertex="1" parent="1">
          <mxGeometry x="781" y="638" width="4" height="4" as="geometry" />
        </mxCell>
        <mxCell id="agSPJJtHKSeSR5ndo58b-28" value="" style="endArrow=classic;html=1;rounded=0;" edge="1" parent="1" source="zlBBdxe0bt9fsabpmSAy-315">
          <mxGeometry width="50" height="50" relative="1" as="geometry">
            <mxPoint x="830" y="910" as="sourcePoint" />
            <mxPoint x="800" y="1069.047619047619" as="targetPoint" />
            <Array as="points">
              <mxPoint x="800" y="835" />
            </Array>
          </mxGeometry>
        </mxCell>
        <mxCell id="agSPJJtHKSeSR5ndo58b-29" value="" style="endArrow=classic;html=1;rounded=0;" edge="1" parent="1">
          <mxGeometry width="50" height="50" relative="1" as="geometry">
            <mxPoint x="1125" y="926" as="sourcePoint" />
            <mxPoint x="1125" y="1071" as="targetPoint" />
          </mxGeometry>
        </mxCell>
        <mxCell id="agSPJJtHKSeSR5ndo58b-30" value="" style="endArrow=none;html=1;rounded=0;" edge="1" parent="1">
          <mxGeometry width="50" height="50" relative="1" as="geometry">
            <mxPoint x="1040" y="680" as="sourcePoint" />
            <mxPoint x="1060" y="660" as="targetPoint" />
          </mxGeometry>
        </mxCell>
        <mxCell id="agSPJJtHKSeSR5ndo58b-31" value="" style="endArrow=none;html=1;rounded=0;" edge="1" parent="1">
          <mxGeometry width="50" height="50" relative="1" as="geometry">
            <mxPoint x="1071" y="680" as="sourcePoint" />
            <mxPoint x="1100" y="1070" as="targetPoint" />
            <Array as="points">
              <mxPoint x="1101" y="680" />
            </Array>
          </mxGeometry>
        </mxCell>
        <mxCell id="agSPJJtHKSeSR5ndo58b-32" value="" style="rounded=0;whiteSpace=wrap;html=1;fillColor=#000000;" vertex="1" parent="1">
          <mxGeometry x="1087" y="1063" width="26" height="8" as="geometry" />
        </mxCell>
        <mxCell id="agSPJJtHKSeSR5ndo58b-33" value="" style="endArrow=none;html=1;rounded=0;" edge="1" parent="1" target="zlBBdxe0bt9fsabpmSAy-276">
          <mxGeometry width="50" height="50" relative="1" as="geometry">
            <mxPoint x="1030" y="680" as="sourcePoint" />
            <mxPoint x="1080" y="560" as="targetPoint" />
            <Array as="points">
              <mxPoint x="1030" y="214" />
            </Array>
          </mxGeometry>
        </mxCell>
        <mxCell id="agSPJJtHKSeSR5ndo58b-34" value="" style="endArrow=none;html=1;rounded=0;" edge="1" parent="1" target="zlBBdxe0bt9fsabpmSAy-284">
          <mxGeometry width="50" height="50" relative="1" as="geometry">
            <mxPoint x="1030" y="302" as="sourcePoint" />
            <mxPoint x="1150" y="250" as="targetPoint" />
          </mxGeometry>
        </mxCell>
        <mxCell id="agSPJJtHKSeSR5ndo58b-35" value="" style="ellipse;whiteSpace=wrap;html=1;fillColor=#000000;" vertex="1" parent="1">
          <mxGeometry x="1028" y="300" width="4" height="4" as="geometry" />
        </mxCell>
        <mxCell id="agSPJJtHKSeSR5ndo58b-36" value="" style="endArrow=none;html=1;rounded=0;" edge="1" parent="1" target="zlBBdxe0bt9fsabpmSAy-292">
          <mxGeometry width="50" height="50" relative="1" as="geometry">
            <mxPoint x="1030" y="390" as="sourcePoint" />
            <mxPoint x="1165" y="390" as="targetPoint" />
          </mxGeometry>
        </mxCell>
        <mxCell id="agSPJJtHKSeSR5ndo58b-37" value="" style="ellipse;whiteSpace=wrap;html=1;fillColor=#000000;" vertex="1" parent="1">
          <mxGeometry x="1028" y="388" width="4" height="4" as="geometry" />
        </mxCell>
        <mxCell id="agSPJJtHKSeSR5ndo58b-38" value="" style="endArrow=none;html=1;rounded=0;" edge="1" parent="1" target="zlBBdxe0bt9fsabpmSAy-174">
          <mxGeometry width="50" height="50" relative="1" as="geometry">
            <mxPoint x="620" y="590" as="sourcePoint" />
            <mxPoint x="700" y="560" as="targetPoint" />
          </mxGeometry>
        </mxCell>
        <mxCell id="agSPJJtHKSeSR5ndo58b-39" value="" style="endArrow=none;html=1;rounded=0;" edge="1" parent="1" target="zlBBdxe0bt9fsabpmSAy-194">
          <mxGeometry width="50" height="50" relative="1" as="geometry">
            <mxPoint x="620" y="602" as="sourcePoint" />
            <mxPoint x="665" y="601.88" as="targetPoint" />
          </mxGeometry>
        </mxCell>
        <mxCell id="agSPJJtHKSeSR5ndo58b-40" value="" style="ellipse;whiteSpace=wrap;html=1;fillColor=#000000;" vertex="1" parent="1">
          <mxGeometry x="618" y="588" width="4" height="4" as="geometry" />
        </mxCell>
        <mxCell id="agSPJJtHKSeSR5ndo58b-41" value="" style="ellipse;whiteSpace=wrap;html=1;fillColor=#000000;" vertex="1" parent="1">
          <mxGeometry x="618" y="600" width="4" height="4" as="geometry" />
        </mxCell>
        <mxCell id="agSPJJtHKSeSR5ndo58b-43" value="" style="ellipse;whiteSpace=wrap;html=1;fillColor=#000000;" vertex="1" parent="1">
          <mxGeometry x="618" y="431" width="4" height="4" as="geometry" />
        </mxCell>
        <mxCell id="agSPJJtHKSeSR5ndo58b-44" value="" style="endArrow=none;html=1;rounded=0;" edge="1" parent="1" source="BFjY9OM7i1V69m8IbPRI-7">
          <mxGeometry width="50" height="50" relative="1" as="geometry">
            <mxPoint x="470" y="480" as="sourcePoint" />
            <mxPoint x="620" y="433" as="targetPoint" />
          </mxGeometry>
        </mxCell>
        <mxCell id="agSPJJtHKSeSR5ndo58b-45" value="" style="ellipse;whiteSpace=wrap;html=1;fillColor=#000000;" vertex="1" parent="1">
          <mxGeometry x="618" y="283" width="4" height="4" as="geometry" />
        </mxCell>
        <mxCell id="agSPJJtHKSeSR5ndo58b-47" value="" style="endArrow=none;html=1;rounded=0;entryX=0;entryY=0.5;entryDx=0;entryDy=0;" edge="1" parent="1" source="zlBBdxe0bt9fsabpmSAy-455" target="agSPJJtHKSeSR5ndo58b-45">
          <mxGeometry width="50" height="50" relative="1" as="geometry">
            <mxPoint x="380" y="300" as="sourcePoint" />
            <mxPoint x="613.030303030303" y="300" as="targetPoint" />
          </mxGeometry>
        </mxCell>
        <mxCell id="agSPJJtHKSeSR5ndo58b-48" value="" style="endArrow=none;html=1;rounded=0;entryX=0.5;entryY=1;entryDx=0;entryDy=0;" edge="1" parent="1" source="zlBBdxe0bt9fsabpmSAy-314" target="agSPJJtHKSeSR5ndo58b-49">
          <mxGeometry width="50" height="50" relative="1" as="geometry">
            <mxPoint x="810" y="800" as="sourcePoint" />
            <mxPoint x="860" y="750" as="targetPoint" />
            <Array as="points">
              <mxPoint x="610" y="905" />
              <mxPoint x="610" y="960" />
              <mxPoint x="840" y="960" />
            </Array>
          </mxGeometry>
        </mxCell>
        <mxCell id="agSPJJtHKSeSR5ndo58b-49" value="" style="ellipse;whiteSpace=wrap;html=1;fillColor=#000000;" vertex="1" parent="1">
          <mxGeometry x="838" y="678" width="4" height="4" as="geometry" />
        </mxCell>
        <mxCell id="agSPJJtHKSeSR5ndo58b-50" value="" style="endArrow=none;html=1;rounded=0;" edge="1" parent="1" source="zlBBdxe0bt9fsabpmSAy-322">
          <mxGeometry width="50" height="50" relative="1" as="geometry">
            <mxPoint x="730" y="850" as="sourcePoint" />
            <mxPoint x="840" y="905" as="targetPoint" />
          </mxGeometry>
        </mxCell>
        <mxCell id="agSPJJtHKSeSR5ndo58b-51" value="" style="endArrow=none;html=1;rounded=0;" edge="1" parent="1" source="zlBBdxe0bt9fsabpmSAy-317">
          <mxGeometry width="50" height="50" relative="1" as="geometry">
            <mxPoint x="790" y="860" as="sourcePoint" />
            <mxPoint x="840" y="855" as="targetPoint" />
          </mxGeometry>
        </mxCell>
        <mxCell id="agSPJJtHKSeSR5ndo58b-52" value="" style="ellipse;whiteSpace=wrap;html=1;fillColor=#000000;" vertex="1" parent="1">
          <mxGeometry x="838" y="853" width="4" height="4" as="geometry" />
        </mxCell>
        <mxCell id="agSPJJtHKSeSR5ndo58b-53" value="" style="ellipse;whiteSpace=wrap;html=1;fillColor=#000000;" vertex="1" parent="1">
          <mxGeometry x="838" y="903" width="4" height="4" as="geometry" />
        </mxCell>
      </root>
    </mxGraphModel>
  </diagram>
</mxfile>
